<svg width="63" height="40" viewBox="0 0 63 40" fill="none" xmlns="http://www.w3.org/2000/svg">
<path d="M23.4344 21.8447C23.4354 22.5726 22.5906 23.37 21.8546 23.371L13.9807 23.3816L13.9955 34.4007L11.3736 34.4042L10.9965 34.4047L10.8978 34.4049L10.8831 23.3857L9.88546 23.3871L9.90024 34.4062L6.77338 34.4104L6.76141 25.4873L4.2756 28.3673C3.11124 29.7163 0.288996 29.6022 0.285724 27.1632L0.278156 21.5211C0.277366 20.9323 1.17539 20.5316 1.77045 20.5505C2.3656 20.5693 3.19658 21.025 3.19737 21.6137L3.20257 25.492L6.57242 21.5877C7.0261 21.0623 7.68294 20.5426 8.38155 20.5416L10.9779 20.5381L11.355 20.5376L21.8509 20.5235C22.5413 20.5226 23.4336 21.1617 23.4345 21.8447L23.4344 21.8447Z" fill="#285CA6"/>
<path d="M11.442 0.0678194L13.4259 4.85979L11.4547 9.55921L3.21178 9.57027L3.22546 19.7732L0.0264186 19.7775L0 0.083168L11.442 0.0678194Z" fill="#E31E24"/>
<path d="M13.8692 19.1351C12.8443 20.1451 11.5921 20.651 10.1126 20.653C8.63292 20.655 7.3794 20.1525 6.35174 19.1452C5.32398 18.1382 4.80926 16.903 4.8073 15.4397C4.80533 13.9764 5.31674 12.74 6.34179 11.7302C7.36675 10.7203 8.61891 10.2143 10.0985 10.2123C11.5781 10.2103 12.8316 10.7128 13.8593 11.7201C14.887 12.7272 15.4018 13.9623 15.4037 15.4255C15.4057 16.8889 14.8943 18.1253 13.8692 19.1351ZM8.46832 17.1156C8.90871 17.5499 9.4555 17.7668 10.1087 17.766C10.7618 17.7651 11.308 17.5468 11.7472 17.1112C12.1864 16.6756 12.4057 16.1149 12.4048 15.4294C12.4039 14.744 12.1832 14.1841 11.7427 13.7496C11.3023 13.3152 10.7555 13.0983 10.1024 13.0992C9.44924 13.1001 8.90304 13.3183 8.46381 13.754C8.02458 14.1895 7.8053 14.7502 7.80622 15.4356C7.80714 16.1211 8.02784 16.6812 8.46832 17.1156Z" fill="#285CA6"/>
<path d="M33.811 9.92341L36.8099 9.91939L36.8232 19.8064L33.8243 19.8104L33.8195 16.2511L30.4205 16.2556L30.4253 19.8149L27.4263 19.819L27.4131 9.93199L30.412 9.92797L30.4168 13.4873L33.8158 13.4827L33.811 9.92341Z" fill="#2F83C5"/>
<path d="M42.6785 12.8776C43.8782 12.876 44.8316 13.1912 45.5388 13.823C46.2461 14.4548 46.6005 15.2914 46.6019 16.3328C46.6033 17.3743 46.2512 18.2119 45.5456 18.8456C44.84 19.4792 43.8874 19.7969 42.6878 19.7985L38.0094 19.8048L37.9961 9.91788L40.995 9.91386L40.999 12.8798L42.6785 12.8776ZM47.5929 9.90501L50.592 9.90099L50.6052 19.7879L47.6061 19.7919L47.5929 9.90501ZM42.7043 17.2279C42.9975 17.2275 43.2341 17.1448 43.4137 16.9798C43.5934 16.8148 43.6831 16.6004 43.6828 16.3368C43.6824 16.0731 43.5922 15.859 43.412 15.6944C43.2318 15.53 42.9951 15.4478 42.7019 15.4482L41.0024 15.4505L41.0048 17.2302L42.7043 17.2279Z" fill="#3681C3"/>
<path d="M54.8036 16.0252C55.1514 16.9474 55.9518 17.4078 57.2047 17.4061C58.0177 17.405 58.6572 17.1537 59.123 16.6522L61.5241 18.0134C60.5397 19.3725 59.0877 20.0534 57.1683 20.056C55.4888 20.0582 54.1453 19.5656 53.1376 18.5783C52.1301 17.5909 51.6252 16.3459 51.6232 14.843C51.6212 13.3535 52.116 12.1103 53.1077 11.1137C54.0994 10.1171 55.3749 9.61778 56.9344 9.61568C58.3873 9.61374 59.5976 10.1098 60.5652 11.1037C61.5328 12.0978 62.0178 13.3396 62.0198 14.8291C62.0203 15.2509 61.9808 15.6465 61.9013 16.0157L54.8037 16.0253L54.8036 16.0252ZM54.7406 13.8106L59.0392 13.8048C58.7446 12.7637 58.0374 12.244 56.9178 12.2455C55.7582 12.247 55.0324 12.7687 54.7405 13.8106L54.7406 13.8106Z" fill="#3681C3"/>
<path d="M31.532 27.7144C32.7317 27.7128 33.6852 28.028 34.3923 28.6599C35.0996 29.2916 35.4541 30.1282 35.4555 31.1697C35.4569 32.2112 35.1047 33.0487 34.3991 33.6824C33.6935 34.3161 32.741 34.6337 31.5413 34.6353L26.8629 34.6416L26.8496 24.7547L29.8485 24.7507L29.8525 27.7167L31.532 27.7144ZM36.4464 24.7418L39.4455 24.7378L39.4588 34.6247L36.4597 34.6287L36.4464 24.7418ZM31.5578 32.0647C31.851 32.0643 32.0876 31.9816 32.2672 31.8166C32.447 31.6516 32.5366 31.4372 32.5363 31.1736C32.5359 30.91 32.4457 30.6958 32.2655 30.5313C32.0853 30.3668 31.8487 30.2847 31.5555 30.2851L29.856 30.2873L29.8583 32.067L31.5578 32.0647Z" fill="#3681C3"/>
<path d="M20.7 24.7157C22.1222 24.7138 23.3242 25.1901 24.3059 26.1448C25.2877 27.0996 25.7794 28.2596 25.7812 29.6253C25.7831 30.9911 25.2944 32.1525 24.3152 33.1098C23.3362 34.0671 22.1354 34.5467 20.7132 34.5487L18.7633 34.5513L18.7694 39.0581L15.6804 39.0623L15.6611 24.7224L20.7 24.7157ZM20.7093 31.6985C21.9141 31.6968 22.6938 30.8316 22.6923 29.7409C22.6908 28.6503 21.9081 27.5643 20.7038 27.5659L18.7539 27.5686L18.7595 31.7011L20.7093 31.6985Z" fill="#3681C3"/>
<path d="M26.227 13.5691L26.2315 16.973L26.2354 19.8204C23.1031 19.8246 19.9706 19.8288 16.8384 19.833L16.8345 16.9856L16.83 13.5817L21.5227 9.28712L26.2269 13.5691L26.227 13.5691ZM23.2324 16.977L23.2295 14.7845L21.5668 12.9896L19.8307 14.789L19.8336 16.9816L23.2324 16.977Z" fill="#E31E24"/>
<path fill-rule="evenodd" clip-rule="evenodd" d="M10.8976 34.4049L9.90004 34.4062L9.88525 23.3871L10.8828 23.3857L10.8976 34.4049Z" fill="#FEFEFE"/>
</svg>
