<svg width="99" height="100" viewBox="0 0 99 100" fill="none" xmlns="http://www.w3.org/2000/svg">
<path fill-rule="evenodd" clip-rule="evenodd" d="M49.2948 0C51.2388 0 52.3275 1.78849 53.6494 3.7325C54.6603 5.28771 55.7489 6.92068 56.9153 7.15397C57.8485 7.30949 59.0149 6.2986 60.1813 5.28771C62.0475 3.65474 63.9138 2.09953 66.4021 3.03266C68.8905 3.96579 69.2793 6.37636 69.7458 8.78694C69.9791 10.3421 70.2901 11.8974 71.0678 12.2862C71.8454 12.7527 73.3228 12.2084 74.8003 11.6641C77.1331 10.8087 79.3881 9.95334 81.4877 11.6641C83.5094 13.3748 83.1206 15.7854 82.6541 18.196C82.4208 19.7512 82.1097 21.3064 82.7318 22.0062C83.3539 22.7061 84.9091 22.7061 86.4643 22.7061C88.9527 22.7061 91.3632 22.7061 92.6852 24.9611C92.6852 24.9611 92.6852 25.0389 92.7629 25.0389C94.0071 27.2939 92.7629 29.3935 91.5965 31.493C90.8189 32.8149 90.0413 34.2146 90.3524 35.07C90.6634 35.9253 92.1408 36.4697 93.6183 37.014C95.9511 37.8694 98.2839 38.7247 98.6727 41.2908C99.1393 43.8569 97.273 45.4899 95.329 47.0451C94.1626 48.056 92.9184 49.0669 92.9184 50C92.9184 50.9331 94.0849 51.944 95.329 52.9549C97.1953 54.5879 99.1393 56.1431 98.6727 58.7092C98.2062 61.353 95.9511 62.1306 93.6183 62.986C92.1408 63.5303 90.6634 64.0746 90.3524 64.93C90.0413 65.7854 90.8189 67.1851 91.5965 68.507C92.8407 70.6843 94.0849 72.7838 92.7629 75.0389C91.441 77.3717 89.0304 77.2939 86.5421 77.2939C84.9869 77.2939 83.4317 77.2939 82.8096 77.9938C82.1875 78.6936 82.4985 80.2488 82.7318 81.804C83.1984 84.2146 83.5872 86.6252 81.5654 88.3359C79.5436 90.0467 77.2108 89.1913 74.878 88.3359C73.4006 87.7916 71.9231 87.2473 71.1455 87.7138C70.3679 88.1804 70.0569 89.7356 69.8236 91.2131C69.357 93.6236 68.9682 96.0342 66.4799 96.9673C63.9915 97.9005 62.1253 96.2675 60.259 94.7123C59.0926 93.7014 57.8485 92.6905 56.9931 92.846C56.06 93.0015 55.2824 94.4012 54.5048 95.7232C53.2606 97.9005 52.0164 100 49.3726 100C46.7287 100 45.4846 97.9005 44.2404 95.7232C43.4628 94.4012 42.6852 93.0015 41.752 92.846C40.8189 92.6905 39.6525 93.7014 38.4861 94.7123C36.6199 96.3453 34.7536 97.9005 32.2653 96.9673C29.7769 96.0342 29.3881 93.6236 28.9216 91.2131C28.6883 89.6579 28.3772 88.1026 27.5996 87.7138C26.822 87.2473 25.3446 87.7916 23.8671 88.3359C21.5343 89.1913 19.2793 90.0467 17.1797 88.3359C15.158 86.6252 15.5468 84.2146 16.0133 81.804C16.2466 80.2488 16.5576 78.6936 15.9356 77.9938C15.3135 77.2939 13.7583 77.2939 12.2031 77.2939C9.71472 77.2939 7.30415 77.2939 5.98222 75.0389C4.66029 72.7838 5.90446 70.6065 7.14863 68.507C7.92623 67.1851 8.70384 65.7854 8.39279 64.93C8.08175 64.0746 6.6043 63.5303 5.12685 62.986C2.79404 62.1306 0.461223 61.2753 0.0724208 58.7092C-0.394142 56.1431 1.47211 54.5101 3.41612 52.9549C4.58253 51.944 5.8267 50.9331 5.8267 50C5.8267 49.0669 4.66029 48.056 3.41612 47.0451C1.54987 45.4121 -0.394142 43.8569 0.0724208 41.2908C0.538984 38.647 2.79404 37.8694 5.12685 37.014C6.6043 36.4697 8.08175 35.9253 8.39279 35.07C8.70384 34.2146 7.92623 32.8149 7.14863 31.493C5.90446 29.3157 4.66029 27.2162 5.98222 24.9611C7.30415 22.7061 9.71472 22.7061 12.2031 22.7061C13.7583 22.7061 15.3135 22.7061 15.9356 22.0062C16.5576 21.3064 16.2466 19.7512 16.0133 18.196C15.5468 15.7854 15.158 13.3748 17.1797 11.6641C19.2015 9.95334 21.5343 10.8087 23.8671 11.6641C25.3446 12.2084 26.822 12.7527 27.5996 12.2862C28.3772 11.8196 28.6883 10.2644 28.9216 8.78694C29.3881 6.37636 29.7769 3.96579 32.2653 3.03266C34.7536 2.09953 36.6199 3.7325 38.4861 5.28771C39.6525 6.2986 40.8967 7.30949 41.752 7.15397C42.6852 6.99844 43.4628 5.59876 44.2404 4.27683C45.4068 2.09953 46.651 0 49.2948 0ZM49.2948 1.55521C51.5499 1.55521 53.2606 8.08709 56.6043 8.63142C59.948 9.2535 62.6696 3.26594 65.9356 4.43235C69.2015 5.59876 67.413 11.8974 70.3679 13.6081C73.3228 15.3188 77.9107 10.6532 80.5545 12.8305C83.1206 15.0078 79.3881 20.3732 81.5654 22.9393C83.7427 25.5054 89.6525 22.7838 91.3632 25.7387C93.074 28.6936 87.7085 32.4261 88.8749 35.6143C90.0413 38.8025 96.5732 38.2582 97.1175 41.6019C97.7396 44.9456 91.3632 46.6563 91.3632 50C91.3632 53.3437 97.6618 55.0544 97.1175 58.3981C96.4954 61.7418 90.0413 61.1975 88.8749 64.3857C87.7085 67.5739 93.074 71.3064 91.3632 74.2613C89.6525 77.2162 83.7427 74.4168 81.5654 77.0606C79.3881 79.6267 83.1206 84.9922 80.5545 87.1695C77.9884 89.3468 73.3228 84.6812 70.3679 86.3919C67.413 88.1026 69.1237 94.4012 65.9356 95.5676C62.7474 96.7341 60.0258 90.8243 56.6043 91.3686C53.2606 91.9907 52.7163 98.4448 49.2948 98.4448C45.8734 98.4448 45.329 91.9129 41.9853 91.3686C38.6416 90.7465 35.92 96.7341 32.6541 95.5676C29.4659 94.4012 31.1766 88.1026 28.2217 86.3919C25.2668 84.6812 20.679 89.3468 18.0351 87.1695C15.469 84.9922 19.2015 79.6267 17.0242 77.0606C14.8469 74.4946 8.93712 77.2162 7.22639 74.2613C5.51566 71.3064 10.8811 67.5739 9.71472 64.3857C8.54832 61.1975 2.01643 61.7418 1.47211 58.3981C0.850026 55.0544 7.22639 53.3437 7.22639 50C7.22639 46.6563 0.927786 45.0233 1.47211 41.6796C2.01643 38.3359 8.54832 38.8802 9.71472 35.6921C10.8811 32.5039 5.51566 28.7714 7.22639 25.8165C8.93712 22.8616 14.8469 25.661 17.0242 23.0171C19.2015 20.3732 15.469 15.0855 18.0351 12.9082C20.6012 10.7309 25.2668 15.3966 28.2217 13.6858C31.1766 11.9751 29.4659 5.67652 32.6541 4.51011C35.8422 3.3437 38.5639 9.2535 41.9853 8.70918C45.329 8.08709 45.8734 1.55521 49.2948 1.55521Z" fill="#FEFEFE"/>
<path fill-rule="evenodd" clip-rule="evenodd" d="M49.2948 1.55521C51.5498 1.55521 53.2605 8.08709 56.6042 8.63141C59.9479 9.2535 62.6696 3.26594 65.9355 4.43235C69.2014 5.59875 67.4129 11.8974 70.3678 13.6081C73.3227 15.3188 77.9106 10.6532 80.5545 12.8305C83.1206 15.0078 79.3881 20.3732 81.5654 22.9393C83.7427 25.5054 89.6525 22.7838 91.3632 25.7387C93.0739 28.6936 87.7084 32.4261 88.8748 35.6143C90.0413 38.8025 96.5731 38.2582 97.1175 41.6019C97.7395 44.9456 91.3632 46.6563 91.3632 50C91.3632 53.3437 97.6618 55.0544 97.1175 58.3981C96.4954 61.7418 90.0413 61.1975 88.8748 64.3857C87.7084 67.5739 93.0739 71.3064 91.3632 74.2613C89.6525 77.2162 83.7427 74.4168 81.5654 77.0606C79.3881 79.6267 83.1206 84.9922 80.5545 87.1695C77.9884 89.3468 73.3227 84.6812 70.3678 86.3919C67.4129 88.1026 69.1237 94.4012 65.9355 95.5676C62.7473 96.7341 60.0257 90.8243 56.6042 91.3686C53.2605 91.9907 52.7162 98.4448 49.2948 98.4448C45.8733 98.4448 45.329 91.9129 41.9853 91.3686C38.6416 90.7465 35.9199 96.7341 32.654 95.5676C29.4658 94.4012 31.1766 88.1026 28.2217 86.3919C25.2668 84.6812 20.6789 89.3468 18.035 87.1695C15.4689 84.9922 19.2014 79.6267 17.0241 77.0606C14.8469 74.4945 8.93706 77.2162 7.22633 74.2613C5.51559 71.3064 10.8811 67.5739 9.71466 64.3857C8.54825 61.1975 2.01637 61.7418 1.47205 58.3981C0.849966 55.0544 7.22633 53.3437 7.22633 50C7.22633 46.6563 0.927726 45.0233 1.47205 41.6796C2.01637 38.3359 8.54825 38.8802 9.71466 35.6921C10.8811 32.5039 5.51559 28.7714 7.22633 25.8165C8.93706 22.8616 14.8469 25.661 17.0241 23.0171C19.2014 20.3732 15.4689 15.0855 18.035 12.9082C20.6011 10.7309 25.2668 15.3966 28.2217 13.6858C31.1766 11.9751 29.4658 5.67652 32.654 4.51011C35.8422 3.3437 38.5638 9.2535 41.9853 8.70917C45.329 8.08709 45.8733 1.55521 49.2948 1.55521Z" fill="#3681C3"/>
<path fill-rule="evenodd" clip-rule="evenodd" d="M47.5841 6.76516L47.6619 6.6874C47.8174 6.45412 47.9729 6.22084 48.2062 6.06532C48.9838 5.59876 50.0724 5.83204 50.539 6.60964C50.6945 6.76516 50.7723 6.99845 50.8501 7.07621C50.9278 7.15397 51.0056 7.30949 51.0833 7.38725C51.0833 7.38725 51.0833 7.38725 51.1611 7.46501C51.8609 8.47589 52.6385 9.33126 53.4939 10.0311C54.2715 10.6532 55.2046 11.1198 56.2933 11.353C57.3819 11.5086 58.3151 11.4308 59.2482 11.042C60.2591 10.6532 61.1922 10.0311 62.1253 9.33126C62.2809 9.17574 62.4364 9.09798 62.6697 8.8647L63.0585 8.55365C63.2917 8.32037 63.6028 8.24261 63.9138 8.16485C64.847 8.00933 65.7023 8.63142 65.8578 9.56454L65.9356 10.0311C66.0134 10.3421 66.0134 10.6532 66.0911 10.7309C66.3244 11.8974 66.6354 12.986 67.1798 13.9191C67.6463 14.7745 68.2684 15.4743 69.2015 16.0187C69.2015 16.0187 69.2793 16.0187 69.2793 16.0964C70.2124 16.6407 71.1456 16.874 72.1564 16.7963C73.2451 16.7963 74.3337 16.563 75.4224 16.1742C75.5779 16.0964 75.8112 16.0187 76.1222 15.9409L76.5888 15.7854C76.8998 15.7076 77.2109 15.6299 77.5219 15.7076C78.455 15.8631 79.0771 16.7963 78.8438 17.6516L78.7661 18.1182C78.6883 18.3515 78.6883 18.5848 78.6106 18.818C78.455 19.9844 78.3773 21.1509 78.5328 22.1617C78.6883 23.0949 79.0771 24.028 79.777 24.8834C80.4768 25.7387 81.2544 26.2053 82.1875 26.5163C83.1984 26.9051 84.2871 26.9829 85.4535 27.0607C85.609 27.0607 85.92 27.0607 86.1533 27.0607H86.5421C86.8532 27.0607 87.242 27.1384 87.553 27.2939C88.3306 27.7605 88.6417 28.7714 88.1751 29.6267L87.9418 30.0156C87.7863 30.3266 87.6308 30.5599 87.553 30.6376C87.0087 31.6485 86.5421 32.7372 86.3866 33.7481C86.2311 34.6812 86.2311 35.6921 86.6199 36.703C87.0087 37.7138 87.553 38.4914 88.3306 39.1135C89.186 39.8134 90.1969 40.2799 91.2855 40.7465C91.5188 40.8243 91.7521 40.902 91.9854 40.9798L92.4519 41.1353C92.763 41.2131 92.9963 41.4463 93.2295 41.6796C93.8516 42.3795 93.6961 43.4681 92.9962 44.0124L92.6852 44.2457C92.6852 44.2457 92.6852 44.2457 92.6074 44.2457C92.3742 44.479 92.1409 44.6345 92.0631 44.7123C91.2078 45.4899 90.4302 46.3453 89.8858 47.2006C89.4193 48.056 89.1082 48.9891 89.1082 50.0778C89.1082 51.1664 89.4193 52.0995 89.8858 52.9549C90.4302 53.8103 91.13 54.6656 91.9854 55.3655L92.0631 55.4432C92.2186 55.521 92.3742 55.7543 92.6074 55.9098L92.9185 56.1431C93.1518 56.2986 93.3851 56.6096 93.4628 56.9207C93.7739 57.776 93.3073 58.7869 92.4519 59.098L91.9854 59.2535C91.7521 59.3313 91.5188 59.409 91.2855 59.4868C90.1969 59.9533 89.186 60.4199 88.3306 61.1197C87.553 61.7418 87.0087 62.5194 86.6199 63.5303C86.2311 64.5412 86.2311 65.4743 86.3866 66.4852C86.5421 67.4961 87.0087 68.5848 87.553 69.5956C87.553 69.6734 87.7863 69.9067 87.9418 70.2177L88.1751 70.6065C88.3306 70.8398 88.4084 71.1509 88.4084 71.4619C88.4084 72.395 87.6308 73.1726 86.6976 73.0949H86.2311C85.92 73.0949 85.6868 73.0949 85.5312 73.0949C84.3648 73.0949 83.2762 73.2504 82.2653 73.6392C81.3322 73.9502 80.5546 74.4946 79.8547 75.2722C79.1549 76.1275 78.7661 76.9829 78.6106 77.9938C78.455 79.0047 78.5328 80.1711 78.6883 81.3375C78.6883 81.5708 78.7661 81.804 78.8438 82.0373L78.9216 82.5039C78.9994 82.8149 78.9994 83.126 78.8438 83.437C78.5328 84.2924 77.5219 84.7589 76.6665 84.4479L76.2 84.2924C75.8889 84.2146 75.6557 84.0591 75.5001 84.0591C74.4115 83.6703 73.2451 83.437 72.2342 83.437C71.2233 83.437 70.2902 83.6703 69.3571 84.1369C68.4239 84.6812 67.8018 85.381 67.2575 86.2364C66.7132 87.1695 66.4022 88.2582 66.1689 89.4246C66.1689 89.5023 66.0911 89.8134 66.0134 90.1244L65.9356 90.591C65.8578 90.902 65.7801 91.2131 65.5468 91.4463C64.9247 92.1462 63.9138 92.2239 63.1362 91.6019L62.7474 91.2908C62.5141 91.1353 62.3586 90.9798 62.2031 90.8243C61.27 90.1244 60.3368 89.5023 59.326 89.1135C58.3928 88.8025 57.4597 88.647 56.3711 88.8025C55.2824 88.958 54.427 89.4246 53.7272 90.0466C52.9496 90.7465 52.2497 91.6019 51.6277 92.6127C51.5499 92.6905 51.3944 93.0016 51.2389 93.2348L51.0056 93.6236C50.8501 93.8569 50.6168 94.0902 50.3835 94.2457C49.6059 94.7123 48.5172 94.4012 48.0507 93.6236L47.8174 93.2348C47.6619 92.9238 47.5064 92.6905 47.4286 92.6127C46.8065 91.6019 46.1067 90.6687 45.3291 90.0466C44.6292 89.4246 43.6961 88.958 42.6852 88.8025C41.5966 88.647 40.6634 88.7247 39.7303 89.1135C38.7194 89.5023 37.7863 90.1244 36.8532 90.8243C36.6976 90.9798 36.5421 91.0575 36.3088 91.2908L35.92 91.6019C35.6868 91.8351 35.3757 91.9129 35.0647 91.9907C34.1315 92.1462 33.2762 91.5241 33.1207 90.591L33.0429 90.1244C32.9651 89.8134 32.9651 89.5023 32.8874 89.4246C32.6541 88.2582 32.3431 87.1695 31.7987 86.2364C31.3322 85.381 30.6323 84.6812 29.6992 84.1369C28.7661 83.5925 27.8329 83.3592 26.8221 83.437C25.7334 83.437 24.6448 83.6703 23.5561 84.0591C23.4006 84.1369 23.1673 84.2146 22.8563 84.2924L22.3897 84.4479C22.0787 84.5257 21.7676 84.6034 21.4566 84.5257C20.5235 84.3701 19.9014 83.437 20.1347 82.5816L20.2124 82.1151C20.2902 81.8818 20.2902 81.6485 20.3679 81.4152C20.5235 80.2488 20.6012 79.0824 20.4457 78.0715C20.1347 77.1384 19.8236 76.2053 19.1238 75.4277C18.4239 74.5723 17.5686 74.1057 16.7132 73.7947C15.7023 73.4059 14.6137 73.3281 13.4473 73.2504C13.2917 73.2504 12.9807 73.2504 12.7474 73.2504H12.3586C12.0476 73.2504 11.6588 73.1726 11.3477 73.0171C10.5701 72.5505 10.2591 71.5397 10.7256 70.6843L10.9589 70.2955C11.1144 69.9844 11.27 69.7512 11.3477 69.6734C11.892 68.6625 12.3586 67.5739 12.5141 66.563C12.6697 65.6299 12.6697 64.619 12.2808 63.6081C11.892 62.5972 11.3477 61.8196 10.5701 61.1975C9.71475 60.4977 8.70387 60.0311 7.61522 59.5645C7.38194 59.4868 7.14866 59.409 6.91537 59.3313L6.44881 59.098C6.13777 59.0202 5.90449 58.7869 5.67121 58.5537C5.04912 57.8538 5.20464 56.7652 5.90449 56.2208L6.21553 55.9876L6.29329 55.9098C6.52657 55.6765 6.75985 55.521 6.83761 55.4432C7.69298 54.6656 8.47058 53.8103 9.01491 52.9549C9.48147 52.0995 9.79251 51.1664 9.79251 50.0778C9.79251 48.9891 9.48147 48.056 9.01491 47.2006C8.47058 46.2675 7.69298 45.4899 6.83761 44.7123C6.75985 44.6345 6.52657 44.479 6.29329 44.2457L5.98225 44.0124C5.74897 43.8569 5.51569 43.5459 5.43792 43.2348C5.12688 42.3795 5.59345 41.3686 6.44881 41.0575L6.91537 40.902C7.14866 40.8243 7.38194 40.7465 7.61522 40.6687C8.70387 40.2022 9.71475 39.7356 10.5701 39.0358C11.3477 38.4137 11.892 37.6361 12.2808 36.6252C12.6697 35.6143 12.6697 34.6812 12.5141 33.6703C12.3586 32.6594 11.892 31.5708 11.3477 30.5599C11.3477 30.4821 11.1144 30.2488 10.9589 29.9378L10.7256 29.549C10.5701 29.3157 10.4924 29.0047 10.4924 28.6936C10.4924 27.7605 11.27 26.9829 12.2031 27.0607H12.6697C12.9807 27.0607 13.214 27.0607 13.3695 27.0607C14.5359 27.0607 15.6245 26.9051 16.6354 26.5163C17.5686 26.2053 18.3462 25.661 19.046 24.8834C19.7459 24.028 20.1347 23.1726 20.2902 22.1617C20.4457 21.1509 20.3679 19.9844 20.2124 18.818C20.2124 18.5848 20.1347 18.3515 20.0569 18.1182L19.9791 17.6516C19.9014 17.3406 19.9014 17.0295 20.0569 16.7185C20.3679 15.8631 21.3788 15.3966 22.2342 15.7076L22.7008 15.8631C23.0118 15.9409 23.2451 16.0964 23.4006 16.0964C24.4892 16.4852 25.6557 16.7185 26.6665 16.7185C27.6774 16.7185 28.6106 16.4852 29.5437 16.0187C30.4768 15.4743 31.0989 14.7745 31.6432 13.9191C32.1875 12.986 32.4986 11.8974 32.7319 10.7309C32.7319 10.6532 32.8096 10.3421 32.8874 10.0311L32.9651 9.56454C33.0429 9.2535 33.1207 8.94246 33.3539 8.70918C33.976 8.00933 34.9869 7.93157 35.7645 8.55365L36.1533 8.8647C36.3866 9.02022 36.5421 9.17574 36.6976 9.33126C37.6308 10.1089 38.5639 10.6532 39.5748 11.042C40.5079 11.353 41.441 11.5086 42.5297 11.353C43.6183 11.1975 44.4737 10.7309 45.1735 10.1089C45.9511 9.40902 46.651 8.55365 47.2731 7.54277C47.2731 7.30949 47.4286 7.07621 47.5841 6.76516ZM34.5981 9.72006C34.5203 10.2644 34.4426 10.7309 34.3648 10.9642C33.8205 13.6081 32.8096 15.9409 30.399 17.3406C27.9885 18.7403 25.4224 18.4292 22.8563 17.5739C22.623 17.4961 22.1564 17.3406 21.6899 17.1073C21.7676 17.5739 21.8454 18.1182 21.9231 18.3515C22.312 20.9953 22.1564 23.5614 20.3679 25.7387C18.5794 27.916 16.0911 28.4603 13.3695 28.5381C13.0585 28.5381 12.5919 28.5381 12.1253 28.5381C12.3586 29.0047 12.6697 29.3935 12.7474 29.6267C13.9916 31.9596 14.7692 34.4479 13.8361 37.0918C12.9029 39.7356 10.7256 41.1353 8.2373 42.1462C8.00402 42.2239 7.53746 42.3795 6.99314 42.6128C7.38194 42.9238 7.77074 43.2348 8.00402 43.4681C10.0258 45.2566 11.581 47.2784 11.581 50.0778C11.581 52.8771 10.0258 54.9767 8.00402 56.6874C7.77074 56.8429 7.38194 57.154 6.99314 57.5428C7.4597 57.6983 7.92626 57.8538 8.2373 58.0093C10.7256 59.0202 12.9029 60.4199 13.8361 63.0638C14.7692 65.6299 14.0693 68.1959 12.7474 70.5288C12.5919 70.762 12.3586 71.2286 12.1253 71.6174C12.6697 71.6174 13.1362 71.6174 13.3695 71.6174C16.0134 71.6952 18.5794 72.2395 20.3679 74.4168C22.1564 76.5941 22.312 79.1602 21.9231 81.804C21.8454 82.1151 21.7676 82.5816 21.6899 83.0482C22.1564 82.8927 22.623 82.6594 22.8563 82.5816C25.4224 81.7263 27.9885 81.4152 30.399 82.8149C32.8096 84.2146 33.8205 86.6252 34.3648 89.1913C34.4426 89.5023 34.5203 89.9689 34.5981 90.4355C34.9869 90.1244 35.3757 89.8134 35.609 89.5801C37.7085 87.9471 40.0413 86.7807 42.763 87.2473C45.4846 87.7138 47.2731 89.5801 48.6728 91.9129C48.8283 92.1462 49.0616 92.6127 49.2948 93.0015C49.5281 92.535 49.7614 92.1462 49.9169 91.9129C51.3166 89.6578 53.1051 87.7138 55.8267 87.2473C58.5484 86.7807 60.8812 87.9471 62.9807 89.5801C63.214 89.7356 63.6028 90.0466 63.9916 90.4355C64.0693 89.8911 64.1471 89.4246 64.2249 89.1913C64.7692 86.5474 65.7801 84.2146 68.1907 82.8149C70.6012 81.4152 73.1673 81.7263 75.7334 82.5816C75.9667 82.6594 76.4333 82.8149 76.8998 83.0482C76.8221 82.5816 76.7443 82.0373 76.6665 81.804C76.2777 79.1602 76.4333 76.5941 78.2218 74.4168C80.0102 72.2395 82.4986 71.6952 85.2202 71.6174C85.5312 71.6174 85.9978 71.6174 86.4644 71.6174C86.2311 71.1509 85.92 70.762 85.8423 70.5288C84.5981 68.1959 83.8205 65.7076 84.7536 63.0638C85.6868 60.4199 87.8641 59.0202 90.3524 58.0093C90.5857 57.9316 91.0522 57.776 91.5966 57.5428C91.2078 57.2317 90.819 56.9207 90.5857 56.6874C88.5639 54.8989 87.0087 52.8771 87.0087 50.0778C87.0087 47.2784 88.5639 45.1788 90.5857 43.4681C90.819 43.3126 91.2078 43.0016 91.5966 42.6128C91.13 42.4572 90.6634 42.3017 90.3524 42.1462C87.8641 41.1353 85.6868 39.7356 84.7536 37.0918C83.8205 34.5257 84.5204 31.9596 85.8423 29.6267C85.9978 29.3935 86.2311 28.9269 86.4644 28.5381C85.92 28.5381 85.4535 28.5381 85.2202 28.5381C82.5763 28.4603 80.0102 27.916 78.2218 25.7387C76.4333 23.5614 76.2777 20.9953 76.6665 18.3515C76.7443 18.0404 76.8221 17.5739 76.8998 17.1073C76.4333 17.2628 75.9667 17.4961 75.7334 17.5739C73.1673 18.4292 70.6012 18.7403 68.1907 17.3406C65.7801 15.9409 64.7692 13.5303 64.2249 10.9642C64.1471 10.6532 64.0693 10.1866 63.9916 9.72006C63.6028 10.0311 63.214 10.3421 62.9807 10.5754C60.8812 12.2084 58.5484 13.3748 55.8267 12.9082C53.1051 12.4417 51.2389 10.5754 49.6836 8.39813C49.5281 8.16485 49.2948 7.85381 49.1393 7.54277C48.9838 7.85381 48.8283 8.16485 48.6728 8.32037C47.2731 10.5754 45.4846 12.5194 42.763 12.986C40.0413 13.4526 37.7085 12.2862 35.609 10.6532C35.3757 10.4199 34.9869 10.1089 34.5981 9.72006Z" fill="#FEFEFE"/>
<path fill-rule="evenodd" clip-rule="evenodd" d="M49.0616 7.54277C48.9061 7.85381 48.7506 8.16485 48.595 8.32037C47.1953 10.5754 45.4069 12.5194 42.6852 12.986C39.9636 13.4526 37.6308 12.2862 35.5313 10.6532C35.298 10.4977 34.9092 10.1866 34.5204 9.79782C34.4426 10.3421 34.3649 10.8087 34.2871 11.042C33.7428 13.6858 32.7319 16.0187 30.3213 17.4184C27.9107 18.818 25.3446 18.507 22.7785 17.6516C22.5453 17.5739 22.0787 17.4184 21.6121 17.1851C21.6899 17.6516 21.7677 18.196 21.8454 18.4292C22.2342 21.0731 22.0787 23.6392 20.2902 25.8165C18.5017 27.9938 16.0134 28.5381 13.2918 28.6159C12.9807 28.6159 12.5142 28.6159 12.0476 28.6159C12.2809 29.0824 12.5919 29.4712 12.6697 29.7045C13.9138 32.0373 14.6915 34.5257 13.7583 37.1695C12.8252 39.8134 10.6479 41.2131 8.15957 42.2239C7.92629 42.3017 7.45973 42.4572 6.91541 42.6905C7.30421 43.0016 7.69301 43.3126 7.92629 43.5459C9.94806 45.3344 11.5033 47.3561 11.5033 50.1555C11.5033 52.9549 9.94806 55.0544 7.92629 56.7652C7.69301 56.9207 7.30421 57.2317 6.91541 57.6205C7.38197 57.776 7.84853 57.9316 8.15957 58.0871C10.6479 59.098 12.8252 60.4977 13.7583 63.1415C14.6915 65.7076 13.9916 68.2737 12.6697 70.6065C12.5142 70.8398 12.2809 71.3064 12.0476 71.6952C12.5919 71.6952 13.0585 71.6952 13.2918 71.6952C15.9356 71.7729 18.5017 72.3173 20.2902 74.4946C22.0787 76.6718 22.2342 79.238 21.8454 81.8818C21.7677 82.1928 21.6899 82.6594 21.6121 83.126C22.0787 82.9704 22.5453 82.7372 22.7785 82.6594C25.3446 81.804 27.9107 81.493 30.3213 82.8927C32.7319 84.2924 33.7428 86.703 34.2871 89.269C34.3649 89.5801 34.4426 90.0467 34.5204 90.5132C34.9092 90.2022 35.298 89.8911 35.5313 89.6579C37.6308 88.0249 39.9636 86.8585 42.6852 87.325C45.4069 87.7916 47.1953 89.6579 48.595 91.9907C48.7506 92.224 48.9838 92.6905 49.2171 93.0793C49.4504 92.6127 49.6837 92.224 49.8392 91.9907C51.2389 89.7356 53.0274 87.7916 55.749 87.325C58.4706 86.8585 60.8034 88.0249 62.903 89.6579C63.1362 89.8134 63.5251 90.1244 63.9139 90.5132C63.9916 89.9689 64.0694 89.5023 64.1471 89.269C64.6915 86.6252 65.7023 84.2924 68.1129 82.8927C70.5235 81.493 73.0896 81.804 75.6557 82.6594C75.889 82.7372 76.3555 82.8927 76.8221 83.126C76.7443 82.6594 76.6666 82.1151 76.5888 81.8818C76.2 79.238 76.3555 76.6718 78.144 74.4946C79.9325 72.3173 82.4209 71.7729 85.1425 71.6952C85.4535 71.6952 85.9201 71.6952 86.3866 71.6952C86.1534 71.2286 85.8423 70.8398 85.7646 70.6065C84.5204 68.2737 83.7428 65.7854 84.6759 63.1415C85.609 60.4977 87.7863 59.098 90.2747 58.0871C90.5079 58.0093 90.9745 57.8538 91.5188 57.6205C91.13 57.3095 90.7412 56.9984 90.5079 56.7652C88.4862 54.9767 86.931 52.9549 86.931 50.1555C86.931 47.3561 88.4862 45.2566 90.5079 43.5459C90.7412 43.3904 91.13 43.0793 91.5188 42.6905C91.0523 42.535 90.5857 42.3795 90.2747 42.2239C87.7863 41.2131 85.609 39.8134 84.6759 37.1695C83.7428 34.6034 84.4426 32.0373 85.7646 29.7045C85.9201 29.4712 86.1534 29.0047 86.3866 28.6159C85.8423 28.6159 85.3757 28.6159 85.1425 28.6159C82.4986 28.5381 79.9325 27.9938 78.144 25.8165C76.3555 23.6392 76.2 21.0731 76.5888 18.4292C76.6666 18.1182 76.7443 17.6516 76.8221 17.1851C76.3555 17.3406 75.889 17.5739 75.6557 17.6516C73.0896 18.507 70.5235 18.818 68.1129 17.4184C65.7023 16.0187 64.6915 13.6081 64.1471 11.042C64.0694 10.7309 63.9916 10.2644 63.9139 9.79782C63.5251 10.1089 63.1362 10.4199 62.903 10.6532C60.8034 12.2862 58.4706 13.4526 55.749 12.986C53.1051 12.4417 51.2389 10.5754 49.6837 8.39813C49.5282 8.16485 49.2949 7.85381 49.0616 7.54277Z" fill="#3681C3"/>
<path d="M24.7224 31.3375H28.2994V49.3002H24.1781V35.6143L21.0676 36.5474L20.0568 33.0482L24.7224 31.3375ZM43.5404 47.0451C42.2185 48.7558 40.43 49.6112 38.175 49.6112C35.9199 49.6112 34.1314 48.7558 32.8095 47.0451C31.4876 45.3344 30.8655 43.0793 30.8655 40.2799C30.8655 37.4806 31.4876 35.2255 32.8095 33.5148C34.1314 31.804 35.9199 30.9487 38.175 30.9487C40.43 30.9487 42.2185 31.804 43.5404 33.5148C44.8624 35.2255 45.4844 37.4806 45.4844 40.2799C45.4844 43.0793 44.8624 45.3344 43.5404 47.0451ZM34.9868 40.2799C34.9868 43.8569 36.0754 45.6454 38.175 45.6454C40.2745 45.6454 41.3631 43.8569 41.3631 40.2799C41.3631 36.703 40.3523 34.9922 38.175 34.9922C36.0754 34.9922 34.9868 36.703 34.9868 40.2799ZM59.7146 47.0451C58.3927 48.7558 56.6042 49.6112 54.3491 49.6112C52.0941 49.6112 50.3056 48.7558 48.9837 47.0451C47.6617 45.3344 47.0397 43.0793 47.0397 40.2799C47.0397 37.4806 47.6617 35.2255 48.9837 33.5148C50.3056 31.804 52.0941 30.9487 54.3491 30.9487C56.6042 30.9487 58.3927 31.804 59.7146 33.5148C61.0365 35.2255 61.6586 37.4806 61.6586 40.2799C61.6586 43.0793 60.9588 45.3344 59.7146 47.0451ZM51.0832 40.2799C51.0832 43.8569 52.1718 45.6454 54.2714 45.6454C56.3709 45.6454 57.4596 43.8569 57.4596 40.2799C57.4596 36.703 56.4487 34.9922 54.3491 34.9922C52.2496 34.9922 51.0832 36.703 51.0832 40.2799ZM70.5233 38.4137C69.668 39.2691 68.6571 39.6579 67.3351 39.6579C66.091 39.6579 65.0023 39.2691 64.147 38.4137C63.2916 37.5583 62.9028 36.5474 62.9028 35.3033C62.9028 34.0591 63.2916 33.0482 64.147 32.1928C65.0023 31.3375 66.091 30.9487 67.3351 30.9487C68.5793 30.9487 69.668 31.3375 70.5233 32.1928C71.3787 33.0482 71.7675 34.0591 71.7675 35.3033C71.7675 36.5474 71.3787 37.5583 70.5233 38.4137ZM65.0023 46.423L76.5886 33.5925L78.2994 34.6034L66.7131 47.4339L65.0023 46.423ZM66.3243 36.3142C66.5575 36.6252 66.8686 36.703 67.3351 36.703C67.7239 36.703 68.035 36.5474 68.346 36.3142C68.5793 36.0031 68.7348 35.6921 68.7348 35.3033C68.7348 34.9145 68.5793 34.5257 68.346 34.2924C68.1127 34.0591 67.7239 33.9036 67.3351 33.9036C66.9463 33.9036 66.6353 34.0591 66.3243 34.2924C66.091 34.6034 65.9355 34.9145 65.9355 35.3033C66.0132 35.6921 66.091 36.0031 66.3243 36.3142ZM79.6991 48.2893C78.8437 49.1446 77.8328 49.5334 76.5109 49.5334C75.189 49.5334 74.1781 49.1446 73.3227 48.2893C72.4673 47.4339 72.0785 46.423 72.0785 45.1788C72.0785 43.9347 72.4673 42.9238 73.3227 42.0684C74.1781 41.2131 75.2667 40.8243 76.5109 40.8243C77.755 40.8243 78.8437 41.2131 79.6991 42.0684C80.5544 42.9238 80.9432 43.9347 80.9432 45.1788C80.9432 46.423 80.5544 47.4339 79.6991 48.2893ZM75.5 46.1897C75.7333 46.5008 76.0443 46.5785 76.5109 46.5785C76.8997 46.5785 77.2107 46.423 77.5218 46.1897C77.7551 45.8787 77.9106 45.5676 77.9106 45.1788C77.9106 44.79 77.7551 44.4012 77.5218 44.168C77.2885 43.9347 76.8997 43.7792 76.5109 43.7792C76.1221 43.7792 75.811 43.9347 75.5 44.168C75.2667 44.479 75.1112 44.79 75.1112 45.1788C75.1112 45.5676 75.2667 45.9565 75.5 46.1897Z" fill="#FEFEFE"/>
<path d="M20.99 53.1104C21.6121 53.1104 22.2342 53.3437 22.7008 53.8103C23.1673 54.2768 23.4006 54.8212 23.4006 55.4432C23.4006 56.0653 23.1673 56.6096 22.7008 57.0762C22.2342 57.5428 21.6899 57.776 20.99 57.776H19.9792V59.8756H18.424V53.1104H20.99ZM20.99 56.2986C21.2233 56.2986 21.4566 56.2208 21.6121 56.0653C21.7677 55.9098 21.8454 55.6765 21.8454 55.4432C21.8454 55.21 21.7677 54.9767 21.6121 54.8211C21.4566 54.6656 21.3011 54.5879 20.99 54.5879H19.9792V56.2986H20.99ZM29.6992 58.9425C28.9994 59.6423 28.2218 59.9533 27.2109 59.9533C26.2 59.9533 25.4224 59.6423 24.7225 58.9425C24.0227 58.2426 23.7117 57.465 23.7117 56.4541C23.7117 55.4432 24.0227 54.6656 24.7225 53.9658C25.4224 53.2659 26.2 52.9549 27.2109 52.9549C28.2218 52.9549 28.9994 53.2659 29.6992 53.9658C30.3991 54.6656 30.7101 55.4432 30.7101 56.4541C30.7101 57.465 30.3991 58.3204 29.6992 58.9425ZM25.889 57.9316C26.2778 58.3204 26.7443 58.4759 27.2886 58.4759C27.833 58.4759 28.2995 58.3204 28.6883 57.9316C29.0771 57.5428 29.2327 57.0762 29.2327 56.4541C29.2327 55.832 29.0771 55.3655 28.6883 54.9767C28.2995 54.5879 27.833 54.4323 27.2886 54.4323C26.7443 54.4323 26.2778 54.5879 25.889 54.9767C25.5002 55.3655 25.3446 55.832 25.3446 56.4541C25.2669 57.0762 25.5002 57.5428 25.889 57.9316ZM34.8314 59.9533C33.8205 59.9533 32.9652 59.6423 32.3431 58.9425C31.6432 58.2426 31.3322 57.465 31.3322 56.4541C31.3322 55.4432 31.6432 54.6656 32.3431 53.9658C33.0429 53.2659 33.8205 52.9549 34.8314 52.9549C35.4535 52.9549 35.9978 53.1104 36.5421 53.3437C37.0865 53.6547 37.4753 53.9658 37.7863 54.5101L36.4644 55.2877C36.3089 55.0544 36.0756 54.8212 35.8423 54.6656C35.5313 54.5101 35.298 54.4323 34.9092 54.4323C34.2871 54.4323 33.8205 54.5879 33.5095 54.9767C33.1207 55.3655 32.9652 55.832 32.9652 56.4541C32.9652 57.0762 33.1207 57.5428 33.5095 57.9316C33.8983 58.3204 34.3649 58.4759 34.9092 58.4759C35.2202 58.4759 35.5313 58.3981 35.8423 58.2426C36.1533 58.0871 36.3089 57.9316 36.4644 57.6205L37.7863 58.3981C37.4753 58.8647 37.0865 59.2535 36.6199 59.5645C35.9978 59.8756 35.4535 59.9533 34.8314 59.9533ZM41.5188 59.9533C40.5079 59.9533 39.6526 59.6423 39.0305 58.9425C38.4084 58.3204 38.0196 57.465 38.0196 56.4541C38.0196 55.4432 38.3306 54.6656 39.0305 53.9658C39.7303 53.2659 40.5079 52.9549 41.5188 52.9549C42.1409 52.9549 42.6852 53.1104 43.2295 53.3437C43.7739 53.6547 44.1627 53.9658 44.4737 54.5101L43.1518 55.2877C42.9963 55.0544 42.763 54.8212 42.5297 54.6656C42.2187 54.5101 41.9854 54.4323 41.5966 54.4323C40.9745 54.4323 40.5079 54.5879 40.1969 54.9767C39.8081 55.3655 39.6526 55.832 39.6526 56.4541C39.6526 57.0762 39.8081 57.5428 40.1969 57.9316C40.5857 58.3204 41.0523 58.4759 41.5966 58.4759C41.9076 58.4759 42.2187 58.3981 42.5297 58.2426C42.8407 58.0871 42.9963 57.9316 43.1518 57.6205L44.4737 58.3981C44.1627 58.8647 43.7739 59.2535 43.3073 59.5645C42.6852 59.8756 42.1409 59.9533 41.5188 59.9533ZM48.9061 59.8756V56.2208L46.2622 59.8756H45.0958V53.1104H46.651V56.7652L49.2171 53.1104H50.4613V59.8756H48.9061ZM52.7941 52.5661V51.3219H55.6712V52.5661H52.7941ZM55.3602 59.8756V56.2208L52.7163 59.8756H51.5499V53.1104H53.1051V56.7652L55.6712 53.1104H56.8376V59.8756H55.3602ZM61.1922 59.9533C60.1813 59.9533 59.326 59.6423 58.7039 58.9425C58.004 58.2426 57.693 57.465 57.693 56.4541C57.693 55.4432 58.004 54.6656 58.7039 53.9658C59.4037 53.2659 60.1813 52.9549 61.1922 52.9549C61.8143 52.9549 62.3586 53.1104 62.903 53.3437C63.4473 53.577 63.8361 53.9658 64.1471 54.5101L62.8252 55.2877C62.6697 55.0544 62.4364 54.8212 62.2031 54.6656C61.8921 54.5101 61.6588 54.4323 61.27 54.4323C60.6479 54.4323 60.1813 54.5879 59.8703 54.9767C59.4815 55.3655 59.326 55.832 59.326 56.4541C59.326 57.0762 59.4815 57.5428 59.8703 57.9316C60.2591 58.3204 60.7257 58.4759 61.27 58.4759C61.581 58.4759 61.8921 58.3981 62.2031 58.2426C62.5141 58.0871 62.6697 57.9316 62.8252 57.6205L64.1471 58.3981C63.8361 58.8647 63.4473 59.2535 62.9807 59.5645C62.3586 59.8756 61.8143 59.9533 61.1922 59.9533ZM70.2902 59.8756H68.5795L66.4022 56.7652V59.8756H64.847V53.1104H66.4022V56.0653L68.4239 53.1104H70.1347L67.8796 56.3764L70.2902 59.8756ZM74.567 59.8756V56.2208L72.0009 59.8756H70.8345V53.1104H72.3897V56.7652L74.9558 53.1104H76.1222V59.8756H74.567ZM78.455 52.5661V51.3219H81.3322V52.5661H78.455ZM81.0211 59.8756V56.2208L78.455 59.8756H77.2886V53.1104H78.8438V56.7652L81.4099 53.1104H82.5764V59.8756H81.0211Z" fill="#FEFEFE"/>
<path d="M34.5204 63.9969V70.762H32.9652V65.5521H31.0212V70.762H29.4659V63.9969H34.5204ZM38.2529 63.9969C38.875 63.9969 39.497 64.2302 39.9636 64.6967C40.4302 65.1633 40.6635 65.7076 40.6635 66.3297C40.6635 66.9518 40.4302 67.4961 39.9636 67.9627C39.497 68.4292 38.9527 68.6625 38.2529 68.6625H37.242V70.762H35.6868V63.9969H38.2529ZM38.2529 67.1073C38.4862 67.1073 38.7194 67.0295 38.875 66.874C39.0305 66.7185 39.1082 66.4852 39.1082 66.2519C39.1082 66.0187 39.0305 65.7854 38.875 65.6299C38.7194 65.4743 38.5639 65.3966 38.2529 65.3966H37.242V67.1073H38.2529ZM47.0398 69.8289C46.34 70.5288 45.5624 70.8398 44.5515 70.8398C43.5406 70.8398 42.763 70.5288 42.0631 69.8289C41.3633 69.1291 41.0523 68.3515 41.0523 67.3406C41.0523 66.3297 41.3633 65.5521 42.0631 64.8523C42.763 64.1524 43.5406 63.8414 44.5515 63.8414C45.5624 63.8414 46.34 64.1524 47.0398 64.8523C47.7397 65.5521 48.0507 66.3297 48.0507 67.3406C48.0507 68.3515 47.6619 69.1291 47.0398 69.8289ZM43.1518 68.7403C43.5406 69.1291 44.0072 69.2846 44.5515 69.2846C45.0958 69.2846 45.5624 69.1291 45.9512 68.7403C46.34 68.3515 46.4955 67.8849 46.4955 67.2628C46.4955 66.6407 46.34 66.1742 45.9512 65.7854C45.5624 65.3966 45.0958 65.2411 44.5515 65.2411C44.0072 65.2411 43.5406 65.3966 43.1518 65.7854C42.763 66.1742 42.6075 66.6407 42.6075 67.2628C42.6075 67.9627 42.763 68.4292 43.1518 68.7403ZM53.8827 69.2068H54.5826V72.0062H53.0274V70.6843H49.6837V72.0062H48.1285V69.2068H48.8283C49.2171 68.6625 49.3726 67.9627 49.3726 66.9518V63.9191H53.8827V69.2068ZM50.4613 69.2068H52.3275V65.3966H50.9278V67.0295C50.9278 67.9627 50.7723 68.7403 50.4613 69.2068ZM58.7816 63.9969H60.3369L58.3928 68.7403C57.8485 70.14 56.9154 70.762 55.5935 70.6843V69.2068C56.2155 69.2846 56.6821 69.0513 56.9154 68.507L54.7381 63.9191H56.2933L57.6152 66.874L58.7816 63.9969ZM66.4022 70.6843H64.6914L62.5141 67.5739V70.6843H60.9589V63.9191H62.5141V66.874L64.5359 63.9191H66.2467L63.9916 67.1851C64.0694 67.2628 66.4022 70.6843 66.4022 70.6843ZM71.5344 63.9969V65.4743H69.8236V70.6843H68.2684V65.4743H66.5577V63.9969H71.5344Z" fill="#FEFEFE"/>
</svg>
