<svg width="1119" height="626" viewBox="0 0 1119 626" fill="none" xmlns="http://www.w3.org/2000/svg">
    <path d="M214.12 234.228C221.813 231.663 220.53 217.56 220.53 217.56C220.53 217.56 229.506 216.278 233.352 212.431C237.198 208.585 238.481 202.174 248.738 198.327C258.995 194.481 253.867 186.788 258.995 182.942C264.124 179.095 270.535 180.377 273.099 176.531C275.663 172.684 274.381 166.274 278.227 163.709C282.074 161.145 294.895 161.145 298.742 164.991C303.871 168.838 302.588 171.402 302.588 176.531C302.588 180.377 306.435 185.506 308.999 188.07C311.563 190.635 311.563 194.481 311.563 204.738C312.846 214.995 314.128 226.535 310.281 234.228C305.153 240.639 294.895 243.203 288.485 239.356C283.356 235.51 276.945 222.688 275.663 216.278C274.381 209.867 271.817 208.585 273.099 203.456C273.099 198.327 274.381 195.763 273.099 195.763C271.817 195.763 271.817 199.61 270.535 204.738C267.97 209.867 271.817 216.278 269.252 220.124C266.688 223.971 261.559 222.688 260.277 225.253C258.995 227.817 258.995 231.663 255.149 234.228C251.302 236.792 253.867 238.074 253.867 240.639C253.867 244.485 253.867 248.331 255.149 250.896C256.431 253.46 257.713 254.742 260.277 254.742C262.842 254.742 265.406 252.178 262.842 248.331C260.277 244.485 262.842 240.639 265.406 239.356C267.97 238.074 269.252 235.51 271.817 238.074C273.099 241.921 271.817 249.614 273.099 249.614C274.381 250.896 273.099 256.024 275.663 256.024C278.227 256.024 279.51 253.46 282.074 250.896C284.638 249.614 282.074 244.485 285.92 244.485C289.767 244.485 291.049 245.767 293.613 244.485C296.178 243.203 296.178 245.767 300.024 245.767C303.871 245.767 308.999 243.203 310.281 244.485C312.846 245.767 312.846 249.614 311.563 252.178C310.281 254.742 307.717 258.589 308.999 258.589C310.281 258.589 311.563 254.742 314.128 253.46C316.692 252.178 321.821 248.331 321.821 247.049C321.821 244.485 320.539 241.921 323.103 240.639C325.667 238.074 326.949 238.074 330.796 235.51C334.642 232.946 330.796 227.817 332.078 225.253C334.642 223.971 335.924 230.381 338.489 231.663C341.053 231.663 343.617 234.228 342.335 238.074C341.053 241.921 339.771 248.331 339.771 248.331C339.771 248.331 332.078 243.203 329.514 244.485C326.949 245.767 326.949 248.331 326.949 250.896C326.949 254.742 325.667 256.024 329.514 258.589C333.36 261.153 335.924 258.589 338.489 257.307C341.053 256.024 342.335 252.178 344.899 253.46C347.464 254.742 348.746 253.46 351.31 254.742C353.875 256.024 360.285 252.178 365.414 254.742C370.543 256.024 371.825 258.589 370.543 259.871C369.26 261.153 373.107 261.153 374.389 259.871C375.671 258.589 373.107 254.742 378.235 256.024C383.364 257.307 384.646 258.589 382.082 261.153C379.518 263.717 379.518 266.282 376.953 264.999C373.107 263.717 376.953 268.846 379.518 268.846C382.082 268.846 383.364 268.846 388.493 268.846C393.621 268.846 392.339 271.41 396.186 272.692C400.032 273.975 401.314 272.692 401.314 272.692C402.596 272.692 403.879 272.692 403.879 271.41C405.161 270.128 407.725 270.128 407.725 271.41C407.725 272.692 405.161 273.975 406.443 275.257C406.443 276.539 403.879 279.103 406.443 280.385C409.007 281.667 410.289 279.103 412.854 279.103C416.7 279.103 416.7 275.257 416.7 272.692C416.7 268.846 416.7 266.282 419.264 267.564C420.547 267.564 423.111 264.999 425.675 266.282C428.239 266.282 428.24 271.41 433.368 273.975C441.061 277.821 448.754 284.232 448.754 285.514C455.165 289.36 455.165 281.667 457.729 275.257C459.011 271.41 461.576 268.846 460.293 267.564C459.011 266.282 456.447 266.282 457.729 264.999C459.011 263.717 459.011 263.717 459.011 262.435C459.011 261.153 457.729 261.153 460.293 258.589C462.858 256.024 466.704 258.589 471.833 254.742C476.961 249.614 478.243 245.767 480.808 241.921C483.372 239.356 483.372 239.356 484.654 240.639C485.936 241.921 488.501 241.921 491.065 241.921C493.629 241.921 497.476 245.767 497.476 248.331C497.476 250.896 496.194 254.742 493.629 257.307C491.065 259.871 488.501 262.435 487.219 264.999L497.476 261.153C498.758 259.871 502.604 259.871 505.169 258.589C507.733 256.024 507.733 254.742 507.733 252.178C507.733 249.614 507.733 248.331 509.015 248.331C510.297 248.331 510.297 249.614 510.297 250.896C510.297 252.178 510.297 257.307 509.015 258.589L511.579 262.435C514.144 261.153 516.708 262.435 520.555 261.153C523.119 259.871 525.683 259.871 528.247 261.153L534.658 254.742C535.94 253.46 535.94 253.46 534.658 250.896C533.376 249.614 535.94 249.614 535.94 248.331C535.94 247.049 534.658 247.049 535.94 245.767C537.223 244.485 538.505 243.203 542.351 243.203C546.198 243.203 547.48 244.485 552.608 244.485C557.737 244.485 560.301 243.203 562.866 243.203C565.43 241.921 565.43 244.485 567.994 243.203C569.276 241.921 570.559 240.639 567.994 239.356C565.43 238.074 564.148 235.51 564.148 234.228C565.43 232.946 565.43 235.51 567.994 235.51C569.276 235.51 567.994 234.228 566.712 231.663C564.148 229.099 564.148 226.535 566.712 227.817C567.994 229.099 569.276 231.663 570.559 229.099C571.841 227.817 578.252 218.842 579.534 218.842C582.098 218.842 582.098 218.842 584.662 217.56C585.944 214.995 587.227 216.278 588.509 217.56C589.791 217.56 589.791 216.278 592.355 216.278C593.637 216.278 596.202 216.278 597.484 214.995C600.048 214.995 597.484 213.713 596.202 213.713C594.919 213.713 594.919 212.431 596.202 211.149C597.484 209.867 598.766 211.149 600.048 209.867C601.33 208.585 602.612 208.585 603.895 209.867C606.459 211.149 607.741 208.585 607.741 209.867C609.023 211.149 607.741 212.431 607.741 212.431C607.741 212.431 609.023 212.431 611.588 212.431C612.87 207.303 617.998 209.867 619.28 206.02H614.152C615.434 202.174 619.28 204.738 623.127 204.738C619.28 203.456 619.28 199.61 621.845 197.045C621.845 191.917 625.691 182.942 632.102 182.942C637.231 184.224 630.82 188.07 632.102 191.917C633.384 190.635 637.231 190.635 639.795 190.635C638.513 191.917 638.513 195.763 638.513 199.61C642.359 191.917 646.206 190.635 652.616 189.352C653.899 189.352 657.745 194.481 660.309 197.045V195.763C664.156 197.045 668.002 200.892 668.002 204.738C666.72 208.585 662.874 206.02 660.309 203.456C679.542 221.406 647.488 238.074 647.488 259.871C647.488 258.589 647.488 258.589 647.488 256.024C655.181 261.153 657.745 252.178 664.156 248.331C662.874 248.331 660.309 249.614 659.027 249.614C657.745 249.614 655.181 245.767 657.745 244.485C662.874 236.792 668.002 249.614 674.413 245.767C675.695 244.485 674.413 241.921 673.131 241.921C685.952 252.178 698.774 234.228 714.16 238.074C709.031 241.921 714.16 243.203 715.442 245.767C724.417 247.049 737.239 244.485 738.521 232.946C738.521 231.663 737.239 229.099 734.674 227.817C744.932 218.842 761.6 218.842 765.446 231.663C765.446 231.663 764.164 235.51 764.164 236.792C765.446 236.792 765.446 235.51 765.446 232.946C766.728 240.639 773.139 243.203 779.55 241.921C771.857 223.971 793.653 222.688 807.757 214.995C807.757 214.995 798.782 220.124 800.064 213.713C801.346 212.431 805.193 212.431 807.757 209.867C806.475 208.585 802.628 206.02 803.911 202.174C802.628 203.456 802.628 203.456 800.064 206.02C801.346 191.917 812.886 186.788 823.143 175.249C824.425 180.377 818.014 180.377 818.014 185.506C819.297 184.224 821.861 180.377 825.707 181.659C824.425 182.942 824.425 185.506 824.425 186.788C832.118 179.095 824.425 167.556 837.247 164.991C841.093 164.991 838.529 168.838 837.247 170.12C838.529 168.838 842.375 168.838 846.222 168.838C847.504 168.838 847.504 166.274 848.786 166.274C850.068 164.991 856.479 167.556 856.479 167.556C856.479 167.556 857.761 166.274 859.043 166.274C859.043 164.991 857.761 163.709 860.325 163.709C862.89 163.709 862.89 163.709 862.89 159.863C862.89 156.016 866.736 152.17 869.301 149.606C871.865 145.759 876.993 143.195 880.84 141.913C884.686 140.631 888.533 141.913 889.815 143.195C891.097 144.477 891.097 147.041 893.661 147.041C896.226 147.041 898.79 144.477 900.072 145.759C902.637 147.041 901.354 145.759 901.354 144.477C901.354 143.195 902.636 144.477 903.919 143.195C903.919 143.195 902.636 140.631 902.636 138.066C902.636 135.502 905.201 132.938 905.201 131.655C905.201 130.373 903.919 129.091 905.201 127.809C906.483 126.527 907.765 127.809 909.047 126.527C910.329 125.245 914.176 118.834 915.458 118.834C916.74 117.552 916.74 116.27 915.458 113.705C915.458 111.141 914.176 109.859 914.176 109.859C909.047 104.73 919.304 107.295 918.022 102.166C919.304 102.166 920.587 104.73 920.587 106.012C920.587 107.295 918.022 108.577 918.022 109.859C918.022 111.141 919.305 111.141 920.587 111.141C921.869 111.141 921.869 113.705 923.151 112.423C924.433 112.423 924.433 109.859 926.997 108.577C929.562 108.577 929.562 109.859 932.126 108.577C934.69 107.295 934.69 107.295 933.408 104.73C932.126 102.166 930.844 99.6016 928.28 99.6016C924.433 99.6016 924.433 100.884 923.151 100.884C921.869 98.3194 918.022 98.3194 915.458 97.0373C937.255 70.112 965.462 44.469 998.798 35.4939C994.952 35.4939 993.669 35.4939 989.823 35.4939C998.798 27.801 1009.06 34.2117 1018.03 31.6474C1016.75 31.6474 1012.9 27.801 1012.9 32.9296C1014.18 31.6474 1016.75 31.6474 1018.03 31.6474C1016.75 35.4939 1012.9 32.9296 1010.34 32.9296C1015.47 32.9296 1019.31 32.9296 1024.44 32.9296H1023.16C1024.44 32.9296 1028.29 32.9296 1030.85 31.6474C1023.16 39.3403 1018.03 44.469 1007.77 44.469C1006.49 44.469 1006.49 49.5976 1005.21 52.1619C1005.21 53.444 1006.49 57.2905 1005.21 58.5727C1003.93 59.8548 1002.64 61.137 1001.36 59.8548C1000.08 58.5727 1000.08 59.8548 998.798 59.8548C997.516 59.8548 997.516 61.137 996.234 59.8548C994.952 58.5727 994.952 57.2905 993.669 56.0083C992.387 56.0083 991.105 56.0083 992.387 57.2905C993.669 58.5727 994.952 59.8548 994.952 59.8548C994.952 61.137 993.669 59.8548 992.387 59.8548C991.105 59.8548 991.105 61.137 992.387 61.137C993.669 61.137 993.669 62.4191 993.669 63.7013C992.387 63.7013 992.387 63.7013 993.669 63.7013C994.952 63.7013 997.516 62.4191 998.798 62.4191C1001.36 62.4191 1001.36 63.7013 1000.08 64.9834C1000.08 66.2656 1000.08 67.5477 1000.08 67.5477C1000.08 67.5477 1000.08 64.9834 1001.36 64.9834C1002.64 64.9834 1003.93 64.9834 1003.93 67.5477C1003.93 70.112 1005.21 70.112 1006.49 71.3942C1007.77 72.6763 1006.49 77.805 1006.49 80.3693C1006.49 82.9336 1005.21 84.2157 1002.64 85.4979C1001.36 86.78 1000.08 89.3443 1000.08 89.3443C998.798 90.6265 1003.93 85.4979 1005.21 86.78C1006.49 88.0622 1003.93 89.3443 1002.64 90.6265C1001.36 91.9087 1003.93 91.9087 1006.49 90.6265C1009.06 88.0622 1010.34 89.3443 1011.62 86.78C1012.9 85.4979 1011.62 82.9336 1014.18 82.9336C1016.75 82.9336 1023.16 84.2157 1025.72 84.2157C1028.29 84.2157 1032.13 81.6514 1033.42 81.6514C1034.7 81.6514 1033.42 84.2157 1037.26 82.9336C1041.11 81.6514 1042.39 84.2157 1043.67 85.4979C1044.96 86.78 1044.96 86.78 1044.96 88.0622C1044.96 89.3443 1042.39 88.0622 1041.11 90.6265C1039.83 91.9087 1037.26 95.7551 1037.26 98.3194C1037.26 100.884 1037.26 103.448 1038.54 106.012C1039.83 107.295 1039.83 108.577 1039.83 111.141C1039.83 113.705 1039.83 113.705 1041.11 114.987C1042.39 116.27 1042.39 116.27 1041.11 117.552C1041.11 118.834 1041.11 120.116 1041.11 121.398C1041.11 122.68 1039.83 122.68 1041.11 123.963C1042.39 125.245 1041.11 125.245 1041.11 126.527C1041.11 127.809 1042.39 129.091 1043.67 130.373C1044.96 131.655 1043.67 132.938 1043.67 132.938C1043.67 134.22 1044.96 132.938 1046.24 132.938C1046.24 134.22 1046.24 134.22 1046.24 135.502C1047.52 136.784 1046.24 138.066 1046.24 138.066L1048.8 139.348C1048.8 140.631 1048.8 140.631 1048.8 143.195C1048.8 144.477 1050.08 145.759 1051.37 147.041C1051.37 148.323 1050.08 150.888 1051.37 152.17C1052.65 153.452 1052.65 154.734 1055.21 156.016C1057.78 157.299 1057.78 158.581 1057.78 158.581C1057.78 159.863 1056.49 159.863 1051.37 159.863C1046.24 159.863 1044.96 161.145 1044.96 161.145C1044.96 161.145 1043.67 164.991 1043.67 166.274C1042.39 167.556 1042.39 171.402 1042.39 173.967C1042.39 176.531 1042.39 180.377 1043.67 181.659C1044.96 182.942 1047.52 186.788 1046.24 188.07C1046.24 189.352 1043.67 186.788 1041.11 185.506C1038.54 184.224 1037.26 182.942 1037.26 182.942C1037.26 182.942 1037.26 186.788 1037.26 189.352C1037.26 193.199 1038.54 191.917 1039.83 193.199C1041.11 194.481 1042.39 194.481 1042.39 197.045C1042.39 198.327 1041.11 198.327 1039.83 197.045C1037.26 197.045 1037.26 197.045 1037.26 198.327C1037.26 199.61 1037.26 202.174 1037.26 203.456C1037.26 204.738 1038.54 207.303 1039.83 208.585C1041.11 209.867 1043.67 209.867 1043.67 211.149C1043.67 212.431 1044.96 212.431 1044.96 213.713C1046.24 213.713 1046.24 214.995 1044.96 214.995H1047.52C1047.52 216.278 1047.52 217.56 1048.8 220.124C1050.08 222.688 1052.65 226.535 1053.93 227.817C1055.21 229.099 1057.78 230.381 1061.62 227.817C1061.62 227.817 1059.06 227.817 1059.06 225.253C1059.06 223.971 1060.34 223.971 1061.62 222.688C1062.91 221.406 1062.91 218.842 1064.19 220.124C1065.47 220.124 1068.03 223.971 1068.03 225.253C1068.03 226.535 1068.03 227.817 1069.32 229.099C1071.88 229.099 1073.16 230.381 1073.16 231.663C1074.45 232.946 1074.45 232.946 1075.73 231.663C1077.01 231.663 1077.01 229.099 1077.01 229.099C1078.29 229.099 1079.57 231.663 1079.57 231.663C1079.57 231.663 1082.14 231.663 1083.42 231.663C1084.7 232.946 1084.7 235.51 1083.42 236.792C1082.14 238.074 1079.57 238.074 1079.57 236.792C1078.29 235.51 1079.57 235.51 1078.29 234.228C1077.01 232.946 1075.73 234.228 1075.73 235.51C1077.01 236.792 1075.73 236.792 1075.73 238.074C1077.01 239.356 1077.01 236.792 1078.29 240.639C1079.57 244.485 1080.86 248.331 1083.42 250.896C1085.98 253.46 1087.27 253.46 1091.11 253.46C1094.96 253.46 1094.96 252.178 1094.96 254.742C1094.96 257.307 1094.96 261.153 1094.96 262.435C1093.68 263.717 1092.4 262.435 1092.4 264.999C1092.4 267.564 1093.68 272.692 1094.96 275.257C1096.24 277.821 1098.81 277.821 1101.37 277.821C1102.65 279.103 1105.22 281.667 1106.5 280.385C1107.78 280.385 1109.06 280.385 1109.06 281.667C1109.06 282.95 1106.5 282.95 1105.22 282.95C1103.93 282.95 1103.93 285.514 1103.93 286.796C1103.93 289.36 1105.22 294.489 1106.5 295.771C1107.78 298.335 1110.35 298.335 1111.63 300.9C1112.91 303.464 1115.47 307.311 1115.47 308.593C1115.47 309.875 1115.47 311.157 1116.76 311.157C1118.04 312.439 1116.76 312.439 1116.76 313.721C1116.76 315.003 1116.76 313.721 1118.04 316.286C1119.32 317.568 1119.32 323.979 1118.04 325.261C1118.04 326.543 1118.04 326.543 1115.47 325.261C1112.91 323.979 1111.63 325.261 1109.06 323.979C1106.5 322.696 1066.75 304.746 1057.78 297.053C1048.8 289.36 1048.8 286.796 1046.24 284.232C1043.67 281.667 1042.39 279.103 1041.11 276.539C1039.83 273.975 1038.54 271.41 1038.54 271.41C1038.54 270.128 1041.11 271.41 1039.83 268.846C1038.54 266.282 1033.42 264.999 1032.13 263.717C1032.13 262.435 1033.42 262.435 1034.7 261.153C1035.98 259.871 1034.7 258.589 1034.7 256.024C1034.7 254.742 1037.26 254.742 1037.26 252.178C1037.26 249.614 1035.98 244.485 1034.7 240.639C1033.42 236.792 1030.85 232.946 1029.57 227.817C1028.29 222.688 1028.29 223.971 1027.01 217.56C1025.72 211.149 1025.72 209.867 1023.16 207.303C1020.59 204.738 1021.88 203.456 1021.88 200.892C1021.88 197.045 1021.88 197.045 1021.88 195.763C1023.16 194.481 1023.16 193.199 1021.88 191.917C1020.59 191.917 1019.31 189.352 1018.03 186.788C1018.03 184.224 1015.47 188.07 1012.9 185.506C1010.34 182.942 1012.9 182.942 1010.34 181.659C1007.77 180.377 1006.49 179.095 1005.21 177.813C1003.93 175.249 1003.93 173.967 1005.21 172.684C1006.49 171.402 1007.77 168.838 1006.49 168.838C1006.49 168.838 1002.64 171.402 1001.36 172.684C1000.08 173.967 1001.36 176.531 1000.08 177.813C998.798 179.095 998.798 180.377 1000.08 181.659C1001.36 182.942 1002.64 181.659 1003.93 182.942C1005.21 184.224 1006.49 186.788 1007.77 188.07C1009.06 189.352 1012.9 188.07 1012.9 189.352C1012.9 190.635 1012.9 190.635 1011.62 191.917C1010.34 191.917 1009.06 191.917 1009.06 193.199C1009.06 194.481 1011.62 203.456 1012.9 204.738C1012.9 207.303 1015.47 209.867 1015.47 212.431C1014.18 214.995 1015.47 213.713 1015.47 216.278C1015.47 217.56 1012.9 217.56 1011.62 216.278C1010.34 214.995 1010.34 212.431 1010.34 212.431C1009.06 212.431 1011.62 214.995 1010.34 216.278C1009.06 216.278 1007.77 214.995 1006.49 212.431C1003.93 209.867 1002.64 207.303 1001.36 206.02C1000.08 204.738 998.798 207.303 1000.08 208.585C1001.36 211.149 1002.64 211.149 1001.36 212.431C1000.08 213.713 997.516 211.149 996.234 212.431C994.952 213.713 996.234 214.995 996.234 214.995C996.234 216.278 996.234 220.124 993.669 221.406C987.259 226.535 985.977 230.381 985.977 234.228C987.259 238.074 988.541 236.792 988.541 240.639C989.823 244.485 989.823 244.485 991.105 248.331C992.387 252.178 992.387 257.306 993.669 259.871C993.669 262.435 996.234 264.999 996.234 266.282C997.516 267.564 997.516 270.128 998.798 268.846C998.798 267.564 998.798 266.282 1000.08 264.999C1001.36 264.999 1000.08 262.435 1002.64 262.435C1005.21 262.435 1007.77 262.435 1007.77 263.717C1007.77 264.999 1003.93 267.564 1003.93 268.846C1003.93 270.128 1005.21 270.128 1003.93 272.692C1003.93 273.975 1001.36 273.975 1000.08 273.975C997.516 273.975 997.516 275.257 997.516 276.539C998.798 277.821 998.798 277.821 997.516 279.103C996.234 280.385 998.798 281.667 997.516 282.95C996.234 284.232 993.669 282.95 993.669 285.514C993.669 286.796 994.952 289.36 993.669 290.643C992.387 291.925 989.823 293.207 987.259 290.643C984.694 289.36 992.387 285.514 991.105 282.95C989.823 280.385 989.823 284.232 987.259 285.514C984.694 286.796 982.13 284.232 979.566 285.514C977.001 286.796 978.284 288.078 974.437 290.643C971.873 293.207 969.308 291.925 969.308 294.489C969.308 297.053 973.155 297.053 973.155 298.335C973.155 299.618 975.719 298.335 974.437 300.9C973.155 303.464 973.155 303.464 970.591 304.746C968.026 306.028 968.026 312.439 962.898 313.721C957.769 315.003 961.616 317.568 960.333 318.85C959.051 320.132 957.769 318.85 956.487 318.85C955.205 317.568 947.512 329.107 943.665 331.671C941.101 334.236 937.255 335.518 938.537 341.929C939.819 348.339 941.101 347.057 939.819 352.186C938.537 356.032 939.819 361.161 941.101 363.725C942.383 366.29 941.101 366.29 939.819 371.418C938.537 376.547 938.537 394.497 938.537 399.626C938.537 404.754 938.537 407.319 937.255 409.883C935.972 412.447 935.972 413.729 935.972 417.576C935.972 420.14 934.69 421.422 933.408 422.704C932.126 425.269 932.126 429.115 934.69 429.115C937.255 429.115 938.537 429.115 941.101 427.833C943.665 426.551 943.665 423.986 946.23 422.704C948.794 421.422 950.076 425.269 951.358 427.833C952.641 430.397 952.641 432.962 953.923 432.962C955.205 431.679 957.769 430.397 956.487 429.115C955.205 427.833 953.923 427.833 955.205 423.986C956.487 420.14 957.769 421.422 957.769 422.704C957.769 425.269 960.333 422.704 960.333 423.986C961.616 425.269 960.333 429.115 960.333 430.397C960.333 431.679 965.462 432.962 964.18 427.833C964.18 422.704 964.18 421.422 964.18 420.14C965.462 420.14 966.744 421.422 966.744 423.986C966.744 426.551 969.308 426.551 968.026 422.704C966.744 418.858 961.616 416.294 961.616 415.011C961.616 412.447 964.18 415.011 965.462 415.011C966.744 415.011 966.744 411.165 970.591 411.165C974.437 409.883 974.437 411.165 977.001 411.165C979.566 412.447 984.694 412.447 987.259 412.447C991.105 412.447 991.105 411.165 991.105 413.729C991.105 416.294 989.823 416.294 989.823 417.576C989.823 418.858 993.669 417.576 994.952 420.14C996.234 422.704 996.234 423.986 998.798 423.986C1001.36 423.986 1002.64 423.987 1002.64 425.269C1002.64 426.551 1005.21 430.397 1003.93 434.244C1002.64 436.808 1007.77 440.654 1009.06 443.219C1010.34 445.783 1009.06 448.347 1012.9 452.194C1016.75 456.04 1025.72 466.298 1028.29 473.991C1030.85 481.683 1029.57 491.941 1029.57 493.223C1029.57 494.505 1032.13 494.505 1030.85 497.069C1030.85 499.634 1029.57 499.634 1029.57 503.48C1030.85 507.326 1034.7 517.584 1033.42 529.123C1032.13 540.662 1030.85 554.766 1030.85 557.331C1030.85 559.895 1033.42 562.459 1033.42 563.741C1033.42 566.306 1032.13 566.306 1032.13 567.588C1032.13 568.87 1029.57 585.538 1021.88 589.384C1014.18 594.513 1012.9 594.513 1010.34 593.231C1009.06 590.667 1010.34 588.102 1007.77 589.384C1005.21 590.667 1002.64 594.513 1002.64 597.077C1001.36 599.642 1003.93 603.488 1001.36 606.052C998.798 608.617 1002.64 599.642 997.516 593.231C993.669 585.538 985.977 580.409 984.694 576.563C984.694 572.716 987.259 571.434 988.541 566.306C989.823 559.895 994.952 562.459 998.798 563.741C1002.64 565.023 997.516 549.638 997.516 544.509C997.516 539.38 994.952 539.38 993.669 535.534C992.387 531.687 989.823 531.687 989.823 527.841C989.823 523.995 992.387 522.712 991.105 518.866C988.541 516.302 988.541 509.891 984.694 512.455C980.848 513.737 979.566 516.302 978.284 520.148C977.001 522.712 975.719 521.43 974.437 523.995C971.873 526.559 973.155 532.97 970.591 535.534C966.744 538.098 960.333 540.663 957.769 540.663C955.205 540.663 952.64 538.098 950.076 534.252C947.512 530.405 948.794 529.123 946.23 529.123C943.665 529.123 942.383 531.687 938.537 529.123C934.69 526.559 933.408 527.841 930.844 529.123C928.28 530.405 929.562 529.123 924.433 530.405C920.587 531.687 915.458 534.252 903.919 521.43C892.379 508.609 883.404 502.198 876.993 499.634C871.865 497.069 869.3 498.351 866.736 499.634C864.172 500.916 861.608 498.351 856.479 499.634C851.35 499.634 847.504 502.198 843.657 504.762C838.529 507.327 835.964 511.173 832.118 516.302C828.272 522.712 830.836 522.712 833.4 522.712C835.964 522.712 837.247 525.277 838.529 529.123C839.811 531.687 837.247 532.97 835.965 536.816C834.682 540.663 835.965 550.92 835.965 553.484C834.682 557.331 837.247 558.613 838.529 559.895C839.811 561.177 839.811 561.177 837.247 565.023C834.682 568.87 834.682 573.998 830.836 576.563C826.989 579.127 821.861 576.563 816.732 575.281C811.604 573.999 811.604 579.127 806.475 579.127C801.346 579.127 801.346 573.999 796.218 575.281C791.089 576.563 788.525 588.102 784.678 590.667C780.832 593.231 775.703 594.513 771.857 598.359C768.01 602.206 766.728 603.488 756.471 604.77C747.496 604.77 743.649 606.052 739.803 603.488C735.956 600.924 734.674 597.077 732.11 597.077C729.546 597.077 726.981 598.359 724.417 595.795C721.853 593.231 714.16 593.231 709.031 595.795C702.62 598.359 698.774 602.206 693.645 602.206C688.517 602.206 687.235 598.359 682.106 599.642C676.977 599.642 679.542 590.667 674.413 586.82C669.284 582.974 656.463 582.974 651.334 580.409C646.206 577.845 643.641 576.563 643.641 579.127C643.641 580.409 639.795 584.256 638.513 586.82C639.795 589.384 637.231 589.384 638.513 593.231C639.795 597.077 639.795 603.488 641.077 604.77C642.359 606.052 643.641 606.052 643.641 608.617C643.641 611.181 638.513 612.463 635.948 615.027C633.384 617.592 632.102 615.027 628.255 615.027C624.409 615.027 623.127 611.181 619.28 613.745C615.434 615.027 611.588 616.31 609.023 611.181C606.459 607.335 605.177 604.77 600.048 604.77C594.92 604.77 592.355 607.335 591.073 604.77C589.791 602.206 591.073 600.924 585.944 602.206C579.534 604.77 575.687 606.052 573.123 607.335C570.559 608.617 562.866 612.463 561.584 613.745C560.301 615.027 562.866 617.592 555.173 620.156C547.48 622.72 547.48 620.156 544.915 622.72C542.351 625.285 539.787 625.285 537.223 625.285C534.658 625.285 532.094 617.592 528.247 617.592C524.401 617.592 519.272 617.592 516.708 616.31C514.144 613.745 514.144 608.617 510.297 606.052C506.451 603.488 509.015 600.924 506.451 598.359C503.887 594.513 501.322 591.949 494.911 593.231C489.783 595.795 484.654 594.513 483.372 593.231C480.808 591.949 479.526 588.102 478.243 585.538C476.961 582.974 474.397 582.974 473.115 586.82C471.833 589.384 469.268 590.667 469.268 590.667C467.986 590.667 462.858 567.588 460.293 558.613C457.729 549.638 450.036 539.38 447.472 536.816C444.908 535.534 447.472 532.97 447.472 531.687C447.472 530.405 447.472 530.405 443.625 530.405C439.779 530.405 437.215 534.252 432.086 535.534C428.239 536.816 423.111 536.816 419.264 535.534C416.7 534.252 417.982 532.97 417.982 531.687C417.982 530.405 416.7 527.841 414.136 526.559C411.572 525.277 410.289 529.123 409.007 527.841C407.725 526.559 410.289 522.712 405.161 522.712C400.032 522.712 400.032 520.148 401.314 517.584C402.596 516.302 403.879 513.737 402.596 511.173C401.314 507.327 403.879 504.762 402.596 503.48C400.032 502.198 397.468 503.48 393.621 499.634C389.775 495.787 385.928 498.351 379.518 499.634C374.389 500.916 361.567 498.351 357.721 497.069C353.875 497.069 352.592 498.351 347.464 498.351C342.335 497.069 321.821 493.223 319.256 491.941C316.692 490.659 314.128 490.659 314.128 493.223C314.128 497.069 314.128 499.634 315.41 502.198C317.974 504.762 317.974 506.044 315.41 507.326C312.846 507.326 311.563 504.762 308.999 504.762C305.153 504.762 303.871 506.044 303.871 507.326C303.871 509.891 303.871 512.455 301.306 512.455C298.742 512.455 293.613 512.455 293.613 513.737C293.613 515.019 294.895 521.43 297.46 525.277C300.024 530.405 298.742 531.687 294.895 532.97C291.049 534.252 287.203 534.252 285.92 531.687C284.638 529.123 284.638 529.123 280.792 530.405C276.945 530.405 279.51 530.405 275.663 526.559C271.817 522.712 273.099 521.43 271.817 518.866C271.817 516.302 270.535 515.019 267.97 515.019C266.688 515.019 262.842 517.584 261.559 515.019C258.995 512.455 258.995 509.891 257.713 509.891C255.149 509.891 253.867 509.891 250.02 511.173C246.174 512.455 244.891 513.737 242.327 508.609C241.045 504.762 241.045 502.198 239.763 502.198C238.481 502.198 235.916 502.198 234.634 497.069C233.352 491.941 232.07 489.376 229.506 485.53C226.941 481.683 228.223 480.401 225.659 477.837C223.095 475.273 217.966 479.119 216.684 476.555C215.402 473.991 217.966 471.426 214.12 470.144C211.555 468.862 201.298 471.426 194.887 471.426C187.194 471.426 185.912 471.426 183.348 475.273C179.502 476.555 178.219 473.991 178.219 470.144C176.937 466.298 179.502 463.733 174.373 465.015C169.244 466.298 160.269 466.298 158.987 470.144C158.987 472.708 160.269 475.273 155.141 477.837C150.012 480.401 150.012 479.119 148.73 485.53C147.448 491.941 146.166 490.659 147.448 493.223C148.73 495.787 152.576 497.069 153.858 502.198C155.141 507.327 151.294 520.148 150.012 521.43C148.73 523.995 144.883 515.019 139.755 516.302C134.626 517.584 130.78 521.43 124.369 526.559C117.958 530.405 112.83 529.123 111.547 530.405C110.265 532.97 112.83 532.97 111.547 538.098C110.265 543.227 105.137 549.638 103.854 552.202C102.572 554.766 105.137 568.87 102.572 571.434C100.008 573.998 94.8794 576.563 91.0329 575.281C85.9043 573.999 87.1865 568.87 84.6222 561.177C82.0579 553.484 79.4936 550.92 82.0579 547.073C84.6222 544.509 78.2114 536.816 78.2114 535.534C76.9292 534.252 69.2363 535.534 67.9542 527.841C65.3899 520.148 62.8256 513.737 56.4148 507.326C50.004 500.916 50.004 493.223 46.1575 490.658C42.3111 486.812 43.5932 475.273 41.0289 468.862C39.7468 461.169 38.4646 461.169 37.1825 454.758C35.9003 448.347 35.9003 445.783 38.4646 445.783C41.0289 445.783 42.3111 447.065 44.8754 449.63C47.4397 452.194 48.7219 452.194 51.2862 450.912C53.8505 449.63 57.6969 449.63 58.9791 449.63C61.5434 450.912 62.8256 447.065 61.5434 445.783C60.2612 443.219 61.5434 441.937 62.8256 440.655C64.1077 439.372 66.672 443.219 69.2363 443.219C70.5185 443.219 75.6471 448.347 78.2114 447.065C80.7757 445.783 80.7757 445.783 76.9292 441.937C73.0828 438.09 73.0828 436.808 76.9292 436.808C82.0579 436.808 85.9043 438.09 89.7508 440.655C93.5973 441.937 94.8794 443.219 97.4437 438.09C101.29 432.962 100.008 431.679 105.137 430.397C110.265 429.115 115.394 422.704 108.983 415.011C103.854 404.754 101.29 404.754 101.29 400.908C101.29 397.061 102.572 397.061 98.7259 394.497C96.1616 391.933 92.3151 384.24 91.0329 384.24C91.0329 384.24 91.0329 381.675 94.8794 377.829C98.7259 373.983 96.1616 372.7 93.5973 368.854C92.3151 365.007 92.3151 362.443 96.1616 362.443C101.29 361.161 100.008 356.032 101.29 353.468C103.854 349.622 100.008 348.339 96.1616 344.493C93.5972 340.647 91.0329 343.211 88.4686 340.647C85.9043 338.082 92.3151 332.954 94.8794 330.389C96.1616 326.543 97.4437 323.979 98.7259 325.261C100.008 326.543 101.29 331.671 105.137 332.954C108.983 332.954 111.547 332.954 110.265 327.825C108.983 323.979 111.547 321.414 111.547 313.721C111.547 307.311 115.394 308.593 115.394 304.746C115.394 300.9 119.24 303.464 120.522 300.9C121.805 299.618 120.522 297.053 124.369 297.053C126.933 297.053 125.651 291.925 123.087 286.796C121.805 282.95 119.24 276.539 119.24 273.975C119.24 271.41 123.087 264.999 126.933 259.871C130.78 254.742 132.062 252.178 134.626 252.178C138.473 253.46 137.19 256.024 139.755 254.742C141.037 253.46 139.755 249.614 142.319 248.331C144.883 247.049 147.448 244.485 150.012 244.485C152.576 244.485 157.705 241.921 160.269 240.639C164.116 239.356 165.398 243.203 166.68 244.485C167.962 244.485 169.244 239.356 173.091 238.074C179.502 238.074 206.427 236.792 214.12 234.228ZM57.6969 209.867C58.9791 221.406 66.672 230.381 70.5185 236.792C71.8006 236.792 75.6471 235.51 76.9292 234.228C83.34 230.381 78.2114 225.253 78.2114 220.124C78.2114 213.713 79.4936 216.278 75.6471 212.431C69.2363 217.56 78.2114 214.995 73.0828 216.278C73.0828 209.867 70.5185 208.585 67.9542 207.303C64.1077 209.867 62.8256 212.431 57.6969 209.867ZM3.84646 400.908C5.12862 406.036 8.97508 403.472 7.69292 411.165C6.41077 415.011 7.69292 413.729 5.12862 415.011C3.84646 416.294 3.84646 415.011 2.56431 416.294C1.28215 416.294 1.28215 417.576 0 417.576C3.84646 432.962 7.69292 422.704 14.1037 425.269C17.9502 427.833 14.1037 431.679 26.9252 431.679C29.4895 444.501 37.1825 439.372 41.0289 439.372C39.7468 435.526 41.0289 439.372 39.7468 435.526L37.1825 431.679C34.6182 429.115 32.0539 430.397 30.7717 426.551C28.2074 422.704 30.7717 422.704 32.0539 418.858L30.7717 407.319C29.4895 403.472 30.7717 404.754 28.2074 403.472C24.3609 402.19 26.9252 407.319 20.5145 400.908C15.3858 397.061 17.9502 399.626 12.8215 398.343C6.41077 399.626 6.41077 397.061 3.84646 400.908ZM614.152 125.245C615.434 123.963 616.716 125.245 617.998 127.809C619.28 130.373 617.998 134.22 617.998 135.502C619.28 136.784 617.998 138.066 617.998 139.348C617.998 140.631 615.434 139.348 616.716 140.631C617.998 141.913 617.998 141.913 619.28 144.477C619.28 147.041 620.563 147.041 617.998 148.323C615.434 148.323 612.87 149.606 611.588 147.041C610.305 144.477 611.588 145.759 607.741 144.477C605.177 144.477 603.895 144.477 601.33 143.195C600.048 140.631 594.919 138.066 596.202 135.502C596.202 132.938 597.484 134.22 598.766 131.655C600.048 129.091 603.895 126.527 605.177 125.245C605.177 123.963 602.612 125.245 600.048 126.527C598.766 127.809 597.484 132.938 596.202 134.22C594.919 135.502 591.073 134.22 588.509 131.655C585.944 129.091 585.944 126.527 587.227 126.527C588.509 125.245 589.791 129.091 592.355 127.809C594.919 126.527 592.355 126.527 593.637 125.245C594.92 123.963 589.791 123.963 591.073 122.68C592.355 121.398 594.919 118.834 594.919 117.552C594.919 114.987 592.355 116.27 593.637 113.705C594.92 111.141 598.766 112.423 600.048 109.859C601.33 104.73 601.33 103.448 602.612 103.448C603.895 103.448 603.895 108.577 605.177 109.859C606.459 111.141 609.023 112.423 609.023 113.705C609.023 116.27 606.459 116.27 607.741 117.552C609.023 120.116 609.023 120.116 609.023 121.398C607.741 122.68 607.741 121.398 607.741 122.68C609.023 125.245 612.87 126.527 614.152 125.245ZM625.691 138.066C624.409 140.631 624.409 140.631 624.409 141.913C625.691 143.195 624.409 143.195 623.127 144.477C621.845 145.759 624.409 145.759 624.409 147.041C624.409 148.323 621.845 147.041 621.845 149.606C621.845 152.17 620.563 157.299 619.28 158.581C617.998 159.863 617.998 159.863 617.998 162.427C625.691 158.581 646.206 152.17 634.666 141.913C630.82 138.066 630.82 141.913 628.255 144.477C628.255 141.913 628.256 140.631 629.538 136.784C629.538 135.502 625.691 135.502 625.691 136.784C626.973 138.066 625.691 136.784 625.691 138.066ZM826.989 111.141C828.272 121.398 838.529 114.987 843.657 114.987C843.657 111.141 846.222 104.73 839.811 102.166C837.247 106.012 832.118 106.012 829.554 111.141C829.554 112.423 825.707 106.012 826.989 111.141ZM788.525 154.734C806.475 166.274 815.45 141.913 825.707 131.655C818.014 135.502 805.193 129.091 811.604 123.963C814.168 120.116 814.168 130.373 818.014 131.655C830.836 134.22 824.425 118.834 824.425 113.705C818.014 117.552 811.604 111.141 807.757 120.116C805.193 122.68 800.064 116.27 794.936 120.116C798.782 123.963 798.782 130.373 802.628 134.22C796.218 131.655 789.807 126.527 782.114 127.809C780.832 129.091 780.832 134.22 780.832 135.502C779.55 138.066 780.832 145.759 788.525 154.734ZM789.807 177.813C788.525 179.095 791.089 181.659 792.371 182.942C793.653 181.659 796.218 179.095 792.371 176.531C792.371 176.531 789.807 176.531 789.807 177.813ZM793.653 190.635C793.653 180.377 801.346 170.12 806.475 177.813C810.321 179.095 805.193 185.506 800.064 185.506C798.782 186.788 793.653 191.917 793.653 190.635ZM965.462 2.15788C953.923 6.00434 960.333 21.3902 968.026 21.3902C974.437 22.6723 971.873 12.4151 973.155 6.00434C973.155 2.15788 973.155 -2.97073 965.462 2.15788ZM948.794 411.165C948.794 412.447 948.794 416.294 950.076 416.294C951.358 417.576 951.358 415.011 952.641 416.294C953.923 417.576 953.923 417.576 955.205 415.011C956.487 412.447 953.923 409.883 953.923 409.883C953.923 408.601 948.794 409.883 948.794 411.165ZM991.105 391.933C991.105 393.215 989.823 395.779 992.387 395.779C994.952 395.779 997.516 398.343 998.798 399.626C1000.08 400.908 997.516 400.908 998.798 402.19C1000.08 403.472 1001.36 402.19 1001.36 404.754C1001.36 407.319 998.798 404.754 997.516 404.754C996.234 404.754 997.516 408.601 998.798 409.883C1000.08 411.165 1005.21 416.294 1006.49 418.858C1007.77 421.422 1007.77 422.704 1010.34 425.269C1012.9 427.833 1014.18 429.115 1018.03 429.115C1021.88 430.397 1023.16 429.115 1024.44 432.962C1025.72 436.808 1028.29 439.372 1030.85 441.937C1033.42 444.501 1041.11 454.758 1043.67 458.605C1046.24 462.451 1046.24 462.451 1048.8 463.733C1051.37 465.015 1052.65 463.733 1053.93 466.298C1055.21 468.862 1057.78 473.991 1060.34 476.555C1062.91 479.119 1065.47 484.248 1068.03 486.812C1070.6 489.376 1071.88 491.941 1073.16 491.941C1074.45 491.941 1073.16 489.376 1071.88 485.53C1070.6 482.966 1069.32 480.401 1070.6 479.119C1071.88 477.837 1077.01 476.555 1078.29 476.555C1080.86 476.555 1080.86 479.119 1082.14 479.119C1083.42 479.119 1082.14 477.837 1082.14 475.273C1082.14 473.99 1082.14 473.99 1079.57 471.426C1077.01 468.862 1075.73 468.862 1074.45 470.144C1074.45 471.426 1073.16 472.708 1070.6 470.144C1069.32 468.862 1071.88 468.862 1066.75 467.58C1062.91 466.298 1059.06 467.58 1053.93 459.887C1050.08 452.194 1050.08 450.912 1047.52 448.347C1044.96 445.783 1044.96 445.783 1046.24 443.219C1047.52 440.654 1050.08 438.09 1052.65 439.372C1055.21 440.654 1060.34 440.654 1061.62 439.372C1061.62 438.09 1060.34 438.09 1057.78 436.808C1055.21 435.526 1051.37 434.244 1050.08 432.962C1048.8 431.679 1050.08 430.397 1047.52 430.397C1044.96 430.397 1044.96 430.397 1041.11 427.833C1037.26 425.269 1030.85 420.14 1028.29 418.858C1025.72 417.576 1027.01 416.294 1024.44 416.294C1023.16 416.294 1023.16 415.011 1020.59 413.729C1018.03 412.447 1016.75 413.729 1015.47 411.165C1014.18 408.601 1014.18 411.165 1012.9 409.883C1011.62 408.601 1014.18 408.601 1015.47 407.319C1016.75 406.036 1011.62 404.754 1010.34 402.19C1007.77 400.908 1005.21 400.908 1005.21 398.343C1005.21 395.779 1007.77 399.626 1007.77 397.061C1007.77 394.497 1002.64 395.779 1002.64 394.497C1001.36 393.215 997.516 390.651 996.234 388.086C996.234 390.651 991.105 388.086 991.105 391.933ZM397.468 227.817C398.75 226.535 400.032 226.535 401.314 227.817C402.596 229.099 402.596 231.663 401.314 231.663C398.75 232.946 398.75 231.663 398.75 229.099C398.75 227.817 396.186 227.817 397.468 227.817ZM398.75 217.56C396.186 221.406 397.468 225.253 398.75 223.971C400.032 223.971 402.596 221.406 402.596 223.971C402.596 226.535 406.443 226.535 405.161 227.817C405.161 230.381 401.314 230.381 401.314 232.946C400.032 235.51 402.596 235.51 403.879 239.356C405.161 241.921 407.725 244.485 410.289 245.767C412.854 248.331 414.136 248.331 415.418 247.049C416.7 244.485 412.854 240.639 414.136 235.51C415.418 230.381 417.982 221.406 423.111 218.842C428.239 216.278 428.239 216.278 428.239 213.713C428.239 211.149 426.957 209.867 426.957 208.585C428.24 207.303 430.804 209.867 429.522 212.431C428.239 214.995 434.65 211.149 435.932 209.867C437.215 208.585 443.625 206.02 444.907 204.738C447.472 203.456 446.19 202.174 446.19 199.61C446.19 197.045 447.472 202.174 448.754 202.174C450.036 202.174 456.447 202.174 457.729 199.61C459.011 197.045 455.165 197.045 457.729 195.763C460.293 195.763 474.397 194.481 479.526 194.481C484.654 193.199 491.065 193.199 493.629 193.199C496.194 193.199 497.476 190.635 498.758 189.352C500.04 188.07 500.04 182.942 498.758 181.659C497.476 180.377 497.476 180.377 494.911 180.377C491.065 180.377 492.347 181.659 489.783 182.942C487.219 182.942 487.219 184.224 487.219 185.506C487.219 186.788 483.372 186.788 478.243 185.506C473.115 184.224 473.115 184.224 471.833 182.942C470.551 181.659 469.268 181.659 467.986 182.942C466.704 184.224 466.704 184.224 464.14 184.224C461.575 182.942 460.293 182.942 456.447 184.224C452.6 184.224 451.318 188.07 448.754 188.07C446.19 188.07 446.19 185.506 444.907 186.788C443.625 188.07 446.19 188.07 442.343 189.352C438.497 190.635 435.932 191.917 438.497 193.199C441.061 195.763 441.061 195.763 439.779 195.763C438.497 195.763 437.215 193.199 434.65 193.199C433.368 193.199 433.368 194.481 433.368 195.763C432.086 195.763 430.804 197.045 428.239 198.327C425.675 199.61 423.111 199.61 420.547 200.892C417.982 200.892 417.982 202.174 419.264 203.456C420.547 204.738 423.111 203.456 423.111 204.738C423.111 206.02 421.829 206.02 419.264 206.02C416.7 207.303 412.854 204.738 411.572 207.303C410.289 208.585 407.725 209.867 407.725 209.867C407.725 209.867 403.879 209.867 405.161 212.431C405.161 212.431 401.314 216.278 400.032 217.56C398.75 218.842 397.468 214.995 396.186 216.278C401.314 214.995 400.032 216.278 398.75 217.56ZM357.721 243.203C357.721 244.485 359.003 247.049 360.285 248.331C361.567 248.331 369.26 249.614 370.543 247.049C371.825 244.485 369.26 239.356 367.978 238.074C366.696 236.792 364.132 238.074 362.85 239.356C360.285 241.921 357.721 241.921 357.721 243.203Z" fill="#285CA6" fill-opacity="0.1"/>
</svg>
