<svg width="364" height="22" viewBox="0 0 364 22" fill="none" xmlns="http://www.w3.org/2000/svg">
<g clip-path="url(#clip0_280_30)">
<path d="M10.2215 4.60308H14.1477L9.20615 16.6523C7.78462 20.1723 5.34769 21.8646 2.03077 21.6615V18.0062C3.58769 18.1415 4.73846 17.6 5.41538 16.3138L0 4.60308H3.92615L7.24308 12.0492L10.2215 4.60308ZM24.5046 4.60308H28.4308V21.6615H24.5046V15.7046C23.5569 16.0431 22.6092 16.2462 21.5938 16.2462C19.8338 16.2462 18.4123 15.7723 17.1938 14.7569C16.0431 13.7415 15.4338 12.3877 15.4338 10.6954V4.60308H19.36V10.0862C19.36 10.8308 19.5631 11.44 19.9692 11.8462C20.3754 12.2523 20.9846 12.4554 21.6615 12.4554C22.6769 12.4554 23.6246 12.2523 24.4369 11.9138L24.5046 4.60308ZM40.8185 21.6615V12.3877L34.2523 21.6615H31.3415V4.60308H35.2V13.8769L41.7662 4.60308H44.6769V21.6615H40.8185ZM55.7785 22C53.2062 22 51.1077 21.12 49.4154 19.4277C47.7231 17.7354 46.9108 15.6369 46.9108 13.1323C46.9108 10.6277 47.7231 8.52923 49.4154 6.83692C51.1077 5.14462 53.2062 4.26462 55.7785 4.26462C57.3354 4.26462 58.6892 4.60308 60.0431 5.34769C61.3292 6.02462 62.3446 7.04 63.0892 8.25846L59.7046 10.2215C59.2985 9.54462 58.8246 9.07077 58.08 8.66462C57.3354 8.25846 56.5908 8.12308 55.7108 8.12308C54.2215 8.12308 53.0031 8.59692 52.1231 9.54462C51.2431 10.4923 50.7692 11.7108 50.7692 13.2C50.7692 14.6892 51.2431 15.9754 52.1231 16.8554C53.0031 17.8031 54.2215 18.2769 55.7108 18.2769C56.5908 18.2769 57.3354 18.0738 58.08 17.7354C58.7569 17.3292 59.2985 16.8554 59.7046 16.1785L63.0892 18.1415C62.3446 19.36 61.3292 20.3077 60.0431 21.0523C58.7569 21.6615 57.3354 22 55.7785 22ZM71.6185 9.95077C73.3108 9.95077 74.7323 10.4923 75.8831 11.6431C77.0338 12.7938 77.6431 14.1477 77.6431 15.7723C77.6431 17.3969 77.0338 18.7508 75.8831 19.9015C74.7323 21.0523 73.3108 21.5938 71.6185 21.5938H65.1877V4.60308H69.1138V9.95077H71.6185ZM71.6185 18.0062C72.2277 18.0062 72.7015 17.8031 73.1077 17.3969C73.5138 16.9908 73.7169 16.4492 73.7169 15.84C73.7169 15.2308 73.5138 14.6892 73.1077 14.2831C72.7015 13.8769 72.2277 13.6738 71.6185 13.6738H69.0462V18.0738L71.6185 18.0062ZM88.88 16.7877C87.8646 16.7877 86.9846 16.4492 86.24 15.7046C85.4954 14.96 85.1569 14.08 85.1569 13.0646C85.1569 12.0492 85.4954 11.2369 86.24 10.4923C86.9846 9.81538 87.8646 9.40923 88.88 9.40923C89.8954 9.40923 90.7077 9.74769 91.4523 10.4246C92.1292 11.1015 92.4677 11.9815 92.4677 12.9969C92.4677 14.0123 92.1292 14.8923 91.3846 15.6369C90.7077 16.4492 89.8277 16.7877 88.88 16.7877ZM110.474 21.6615V12.3877L103.908 21.6615H100.997V4.60308H104.923V13.8769L111.489 4.60308H114.4V21.6615H110.474ZM127.058 4.60308V8.32615H121.237V21.6615H117.311V4.60308H127.058ZM135.249 4.60308C136.942 4.60308 138.363 5.14462 139.514 6.29538C140.665 7.44615 141.274 8.8 141.274 10.4246C141.274 12.0492 140.665 13.4031 139.514 14.5538C138.363 15.7046 136.942 16.2462 135.249 16.2462H132.677V21.6615H128.751V4.60308H135.249ZM135.249 12.6585C135.858 12.6585 136.332 12.4554 136.738 12.0492C137.145 11.6431 137.348 11.1015 137.348 10.4923C137.348 9.88308 137.145 9.34154 136.738 8.93538C136.332 8.52923 135.858 8.32615 135.249 8.32615H132.677V12.7262L135.249 12.6585ZM154 21.6615L153.12 18.9538H146.757L145.877 21.6615H141.612L147.434 4.60308H152.375L158.197 21.6615H154ZM147.975 15.2985H151.969L149.938 9.00308L147.975 15.2985ZM162.732 3.18154V0H170.043V3.18154H162.732ZM169.231 21.6615V12.3877L162.665 21.6615H159.754V4.60308H163.68V13.8769L170.246 4.60308H173.157V21.6615H169.231ZM185.342 16.7877C184.326 16.7877 183.446 16.4492 182.702 15.7046C181.957 14.96 181.618 14.08 181.618 13.0646C181.618 12.0492 181.957 11.2369 182.702 10.4923C183.446 9.81538 184.326 9.40923 185.342 9.40923C186.357 9.40923 187.169 9.74769 187.914 10.4246C188.658 11.1015 188.929 11.9815 188.929 12.9969C188.929 14.0123 188.591 14.8923 187.846 15.6369C187.169 16.4492 186.357 16.7877 185.342 16.7877ZM210.388 4.60308V21.6615H206.462V8.32615H201.317V21.6615H197.391V4.60308H210.388ZM222.572 4.60308H226.498L221.557 16.6523C220.135 20.1723 217.698 21.8646 214.382 21.6615V18.0062C215.938 18.1415 217.089 17.6 217.766 16.3138L212.283 4.60308H216.209L219.526 12.0492L222.572 4.60308ZM239.631 4.60308V8.32615H235.231V21.6615H231.305V8.32615H226.905V4.60308H239.631ZM245.249 17.9385H252.086V21.6615H241.391V4.60308H252.018V8.32615H245.317V11.1692H251.409V14.8923H245.317C245.249 14.8923 245.249 17.9385 245.249 17.9385ZM270.363 4.60308H274.289V21.6615H254.32V4.60308H258.246V17.9385H262.375V4.60308H266.302V17.9385H270.431L270.363 4.60308ZM281.058 17.9385H287.895V21.6615H277.2V4.60308H287.828V8.32615H281.126V11.1692H287.218V14.8923H281.126C281.058 14.8923 281.058 17.9385 281.058 17.9385ZM298.252 22C295.68 22 293.582 21.12 291.889 19.4277C290.197 17.7354 289.385 15.6369 289.385 13.1323C289.385 10.6277 290.197 8.52923 291.889 6.83692C293.582 5.14462 295.68 4.26462 298.252 4.26462C299.809 4.26462 301.163 4.60308 302.517 5.34769C303.803 6.02462 304.818 7.04 305.563 8.25846L302.178 10.2215C301.772 9.54462 301.298 9.07077 300.554 8.66462C299.877 8.32615 299.065 8.12308 298.185 8.12308C296.695 8.12308 295.477 8.59692 294.597 9.54462C293.717 10.4923 293.243 11.7108 293.243 13.2C293.243 14.6892 293.717 15.9754 294.597 16.8554C295.477 17.8031 296.695 18.2769 298.185 18.2769C299.065 18.2769 299.809 18.0738 300.554 17.7354C301.231 17.3292 301.772 16.8554 302.178 16.1785L305.563 18.1415C304.818 19.36 303.803 20.3077 302.517 21.0523C301.231 21.7969 299.742 22 298.252 22ZM319.034 4.60308V8.32615H314.634V21.6615H310.708V8.32615H306.308V4.60308H319.034ZM331.354 12.7938C332.775 13.6738 333.452 14.96 333.452 16.6523C333.452 18.1415 332.911 19.36 331.895 20.24C330.812 21.1877 329.526 21.6615 327.969 21.6615H320.794V4.60308H327.495C329.052 4.60308 330.271 5.07692 331.354 5.95692C332.437 6.83692 332.911 8.05538 332.911 9.47692C332.843 10.8308 332.369 11.9815 331.354 12.7938ZM327.428 8.25846H324.652V11.3046H327.428C327.834 11.3046 328.24 11.1692 328.511 10.8985C328.782 10.6277 328.917 10.2215 328.917 9.81538C328.917 9.40923 328.782 9.00308 328.511 8.73231C328.24 8.39385 327.902 8.25846 327.428 8.25846ZM327.969 18.0062C328.443 18.0062 328.849 17.8708 329.12 17.5323C329.391 17.2615 329.526 16.8554 329.526 16.3815C329.526 15.9077 329.391 15.5015 329.12 15.2308C328.849 14.96 328.443 14.7569 327.969 14.7569H324.72V18.0062H327.969ZM344.622 4.60308H348.548L343.606 16.6523C342.185 20.1723 339.748 21.8646 336.431 21.6615V18.0062C337.988 18.1415 339.138 17.6 339.815 16.3138L334.4 4.60308H338.326L341.643 12.0492L344.622 4.60308ZM353.286 3.18154V0H360.597V3.18154H353.286ZM359.785 21.6615V12.3877L353.151 21.6615H350.24V4.60308H354.166V13.8769L360.732 4.60308H363.643V21.6615H359.785Z" fill="#285CA6"/>
</g>
<defs>
<clipPath id="clip0_280_30">
<rect width="363.643" height="22" fill="white"/>
</clipPath>
</defs>
</svg>
